<svg xmlns="http://www.w3.org/2000/svg" xmlns:xlink="http://www.w3.org/1999/xlink" width="1400" zoomAndPan="magnify" viewBox="0 0 1050 599.999999" height="800" preserveAspectRatio="xMidYMid meet" version="1.0"><defs><clipPath id="0d7407e89b"><path d="M 0 28.953125 L 1050 28.953125 L 1050 263.335938 L 0 263.335938 Z M 0 28.953125 " clip-rule="nonzero"/></clipPath><clipPath id="c46288f52d"><path d="M -64.207031 28.953125 L 1332.308594 28.953125 C 1339.667969 28.953125 1346.726562 31.878906 1351.929688 37.082031 C 1357.132812 42.285156 1360.058594 49.34375 1360.058594 56.703125 L 1360.058594 235.585938 C 1360.058594 242.945312 1357.132812 250.003906 1351.929688 255.207031 C 1346.726562 260.410156 1339.667969 263.335938 1332.308594 263.335938 L -64.207031 263.335938 C -71.566406 263.335938 -78.625 260.410156 -83.828125 255.207031 C -89.035156 250.003906 -91.957031 242.945312 -91.957031 235.585938 L -91.957031 56.703125 C -91.957031 49.34375 -89.035156 42.285156 -83.828125 37.082031 C -78.625 31.878906 -71.566406 28.953125 -64.207031 28.953125 " clip-rule="nonzero"/></clipPath><clipPath id="736abeb85b"><path d="M 0 107.976562 L 1050 107.976562 L 1050 418.113281 L 0 418.113281 Z M 0 107.976562 " clip-rule="nonzero"/></clipPath><clipPath id="4e26cb72bd"><path d="M 516.683594 107.976562 C 196.847656 107.976562 -62.429688 177.40625 -62.429688 263.046875 C -62.429688 348.6875 196.847656 418.113281 516.683594 418.113281 C 836.523438 418.113281 1095.800781 348.6875 1095.800781 263.046875 C 1095.800781 177.40625 836.523438 107.976562 516.683594 107.976562 " clip-rule="nonzero"/></clipPath><clipPath id="c8ef095747"><path d="M 0 0 L 1050 0 L 1050 251.035156 L 0 251.035156 Z M 0 0 " clip-rule="nonzero"/></clipPath><clipPath id="31ca2e483f"><path d="M -76.507812 -8.289062 L 1320.007812 -8.289062 C 1327.371094 -8.289062 1334.425781 -5.363281 1339.632812 -0.160156 C 1344.835938 5.042969 1347.757812 12.101562 1347.757812 19.460938 L 1347.757812 223.285156 C 1347.757812 230.644531 1344.835938 237.703125 1339.632812 242.90625 C 1334.425781 248.113281 1327.371094 251.035156 1320.007812 251.035156 L -76.507812 251.035156 C -83.867188 251.035156 -90.925781 248.113281 -96.128906 242.90625 C -101.332031 237.703125 -104.257812 230.644531 -104.257812 223.285156 L -104.257812 19.460938 C -104.257812 12.101562 -101.332031 5.042969 -96.128906 -0.160156 C -90.925781 -5.363281 -83.867188 -8.289062 -76.507812 -8.289062 " clip-rule="nonzero"/></clipPath><clipPath id="b117c5b7d3"><path d="M 0 75 L 157 75 L 157 257 L 0 257 Z M 0 75 " clip-rule="nonzero"/></clipPath><clipPath id="8b57f94a27"><path d="M -62.429688 122.035156 L 99.445312 28.910156 L 189.578125 185.582031 L 27.703125 278.707031 Z M -62.429688 122.035156 " clip-rule="nonzero"/></clipPath><clipPath id="7929f19d4b"><path d="M -62.429688 122.035156 L 99.445312 28.910156 L 189.578125 185.582031 L 27.703125 278.707031 Z M -62.429688 122.035156 " clip-rule="nonzero"/></clipPath><clipPath id="68f0c092fa"><path d="M 441 255 L 542 255 L 542 357 L 441 357 Z M 441 255 " clip-rule="nonzero"/></clipPath><clipPath id="9480338184"><path d="M 426.59375 274.660156 L 521.445312 235.152344 L 559.800781 327.234375 L 464.949219 366.742188 Z M 426.59375 274.660156 " clip-rule="nonzero"/></clipPath><clipPath id="c361ada408"><path d="M 426.59375 274.660156 L 521.445312 235.152344 L 559.800781 327.234375 L 464.949219 366.742188 Z M 426.59375 274.660156 " clip-rule="nonzero"/></clipPath><clipPath id="d33b6479f9"><path d="M 764 0 L 1050 0 L 1050 308 L 764 308 Z M 764 0 " clip-rule="nonzero"/></clipPath><clipPath id="929d6fed3f"><path d="M 754.769531 -33.382812 L 1116.417969 -54.269531 L 1136.65625 296.148438 L 775.007812 317.035156 Z M 754.769531 -33.382812 " clip-rule="nonzero"/></clipPath><clipPath id="daf3e6f1f0"><path d="M 754.769531 -33.382812 L 1116.417969 -54.269531 L 1136.65625 296.148438 L 775.007812 317.035156 Z M 754.769531 -33.382812 " clip-rule="nonzero"/></clipPath><clipPath id="a25f6733ae"><path d="M 335 0 L 495 0 L 495 141 L 335 141 Z M 335 0 " clip-rule="nonzero"/></clipPath><clipPath id="b0e2f715d2"><path d="M 314.5 -0.34375 L 473.882812 -53.453125 L 525.332031 100.949219 L 365.949219 154.058594 Z M 314.5 -0.34375 " clip-rule="nonzero"/></clipPath><clipPath id="e68bcf9d3b"><path d="M 314.5 -0.34375 L 473.882812 -53.453125 L 525.332031 100.949219 L 365.949219 154.058594 Z M 314.5 -0.34375 " clip-rule="nonzero"/></clipPath></defs><rect x="-105" width="1260" fill="#ffffff" y="-60" height="719.999999" fill-opacity="1"/><rect x="-105" width="1260" fill="#ffffff" y="-60" height="719.999999" fill-opacity="1"/><rect x="-105" width="1260" fill="#ffffff" y="-60" height="719.999999" fill-opacity="1"/><g clip-path="url(#0d7407e89b)"><g clip-path="url(#c46288f52d)"><path fill="#0081c9" d="M -91.957031 28.953125 L 1360.058594 28.953125 L 1360.058594 263.335938 L -91.957031 263.335938 Z M -91.957031 28.953125 " fill-opacity="1" fill-rule="nonzero"/></g></g><g clip-path="url(#736abeb85b)"><g clip-path="url(#4e26cb72bd)"><path fill="#0081c9" d="M -62.429688 107.976562 L 1095.800781 107.976562 L 1095.800781 418.113281 L -62.429688 418.113281 Z M -62.429688 107.976562 " fill-opacity="1" fill-rule="nonzero"/></g></g><g clip-path="url(#c8ef095747)"><g clip-path="url(#31ca2e483f)"><path fill="#0081c9" d="M -104.257812 -8.289062 L 1347.757812 -8.289062 L 1347.757812 251.035156 L -104.257812 251.035156 Z M -104.257812 -8.289062 " fill-opacity="1" fill-rule="nonzero"/></g></g><g clip-path="url(#b117c5b7d3)"><g clip-path="url(#8b57f94a27)"><g clip-path="url(#7929f19d4b)"><path fill="#1a8ecf" d="M 151.464844 204.636719 C 149.558594 205.734375 147.324219 206.242188 145.023438 206.015625 L 90.828125 200.632812 L 68.238281 250.191406 C 66.3125 254.40625 61.921875 256.933594 57.304688 256.429688 C 52.703125 255.949219 48.933594 252.566406 47.960938 248.054688 L 35.75 193.707031 L -17.6875 188.84375 C -22.289062 188.324219 -26.039062 184.917969 -26.996094 180.390625 C -27.9375 175.871094 -25.878906 171.242188 -21.882812 168.90625 L 25.199219 141.726562 L 14.332031 88.128906 C 13.40625 83.59375 15.496094 78.980469 19.511719 76.671875 C 23.527344 74.359375 28.566406 74.875 32.027344 77.949219 L 72.644531 114.433594 L 120.046875 87.257812 C 124.089844 84.96875 129.132812 85.515625 132.550781 88.605469 C 135.988281 91.707031 137.046875 96.660156 135.179688 100.902344 L 112.519531 149.542969 L 153.367188 187.417969 C 156.785156 190.519531 157.804688 195.488281 155.914062 199.703125 C 154.964844 201.839844 153.386719 203.53125 151.464844 204.636719 Z M 151.464844 204.636719 " fill-opacity="1" fill-rule="nonzero"/></g></g></g><g clip-path="url(#68f0c092fa)"><g clip-path="url(#9480338184)"><g clip-path="url(#c361ada408)"><path fill="#1a8ecf" d="M 537.667969 334.96875 C 536.550781 335.433594 535.292969 335.550781 534.054688 335.265625 L 504.832031 328.492188 L 489.0625 354.007812 C 487.714844 356.179688 485.144531 357.25 482.660156 356.648438 C 480.179688 356.0625 478.355469 353.941406 478.136719 351.40625 L 475.238281 320.808594 L 446.394531 314.371094 C 443.917969 313.765625 442.105469 311.632812 441.894531 309.089844 C 441.695312 306.550781 443.140625 304.164062 445.484375 303.167969 L 473.078125 291.625 L 470.859375 261.535156 C 470.667969 258.988281 472.128906 256.613281 474.484375 255.632812 C 476.835938 254.652344 479.550781 255.289062 481.226562 257.214844 L 500.878906 280.046875 L 528.648438 268.527344 C 531.015625 267.5625 533.730469 268.21875 535.382812 270.148438 C 537.042969 272.089844 537.28125 274.875 535.964844 277.0625 L 520.21875 302.074219 L 539.898438 325.679688 C 541.550781 327.621094 541.761719 330.410156 540.4375 332.582031 C 539.769531 333.683594 538.792969 334.5 537.667969 334.96875 Z M 537.667969 334.96875 " fill-opacity="1" fill-rule="nonzero"/></g></g></g><g clip-path="url(#d33b6479f9)"><g clip-path="url(#929d6fed3f)"><g clip-path="url(#daf3e6f1f0)"><path fill="#1a8ecf" d="M 1054 296.074219 C 1049.738281 296.320312 1045.425781 295.257812 1041.628906 292.867188 L 952.304688 236.378906 L 870.082031 302.773438 C 863.078125 308.421875 853.269531 308.988281 845.699219 304.097656 C 838.132812 299.261719 834.535156 290.109375 836.765625 281.429688 L 862.796875 176.453125 L 774.339844 121.53125 C 766.808594 116.628906 763.265625 107.449219 765.535156 98.757812 C 767.824219 90.089844 775.421875 83.847656 784.378906 83.269531 L 889.648438 77.03125 L 917.359375 -25.476562 C 919.691406 -34.160156 927.320312 -40.347656 936.292969 -40.867188 C 945.265625 -41.386719 953.558594 -36.105469 956.886719 -27.757812 L 995.644531 70.90625 L 1101.46875 64.953125 C 1110.464844 64.5 1118.742188 69.832031 1121.984375 78.171875 C 1125.25 86.542969 1122.785156 96.070312 1115.859375 101.804688 L 1034.3125 166.546875 L 1072.257812 267.828125 C 1075.488281 276.191406 1072.9375 285.703125 1066 291.375 C 1062.496094 294.261719 1058.289062 295.824219 1054 296.074219 Z M 1054 296.074219 " fill-opacity="1" fill-rule="nonzero"/></g></g></g><g clip-path="url(#a25f6733ae)"><g clip-path="url(#b0e2f715d2)"><g clip-path="url(#e68bcf9d3b)"><path fill="#1a8ecf" d="M 488.320312 110.917969 C 486.441406 111.542969 484.382812 111.589844 482.390625 110.980469 L 435.570312 96.503906 L 406.789062 136.171875 C 404.335938 139.546875 400.015625 140.988281 396.03125 139.714844 C 392.058594 138.464844 389.34375 134.804688 389.289062 130.648438 L 388.246094 80.511719 L 342 66.628906 C 338.035156 65.347656 335.335938 61.667969 335.300781 57.503906 C 335.28125 53.34375 337.925781 49.632812 341.867188 48.289062 L 388.238281 32.757812 L 388.246094 -16.480469 C 388.238281 -20.648438 390.90625 -24.34375 394.863281 -25.660156 C 398.816406 -26.976562 403.167969 -25.617188 405.667969 -22.285156 L 434.953125 17.191406 L 481.613281 1.722656 C 485.585938 0.429688 489.933594 1.8125 492.394531 5.15625 C 494.871094 8.507812 494.917969 13.070312 492.511719 16.476562 L 463.835938 55.320312 L 493.074219 96.066406 C 495.535156 99.417969 495.542969 103.984375 493.121094 107.363281 C 491.902344 109.078125 490.210938 110.289062 488.320312 110.917969 Z M 488.320312 110.917969 " fill-opacity="1" fill-rule="nonzero"/></g></g></g></svg>