<svg xmlns="http://www.w3.org/2000/svg" xmlns:xlink="http://www.w3.org/1999/xlink" width="720" zoomAndPan="magnify" viewBox="0 0 540 959.999988" height="1280" preserveAspectRatio="xMidYMid meet" version="1.0"><defs><clipPath id="af74b4110e"><path d="M 0 165.300781 L 540 165.300781 L 540 283.957031 L 0 283.957031 Z M 0 165.300781 " clip-rule="nonzero"/></clipPath><clipPath id="7269224c90"><path d="M -29.238281 165.300781 L 677.34375 165.300781 C 681.125 165.300781 684.75 166.804688 687.421875 169.476562 C 690.09375 172.148438 691.59375 175.773438 691.59375 179.550781 L 691.59375 269.707031 C 691.59375 273.484375 690.09375 277.109375 687.421875 279.78125 C 684.75 282.453125 681.125 283.957031 677.34375 283.957031 L -29.238281 283.957031 C -33.015625 283.957031 -36.640625 282.453125 -39.3125 279.78125 C -41.984375 277.109375 -43.488281 273.484375 -43.488281 269.707031 L -43.488281 179.550781 C -43.488281 175.773438 -41.984375 172.148438 -39.3125 169.476562 C -36.640625 166.804688 -33.015625 165.300781 -29.238281 165.300781 " clip-rule="nonzero"/></clipPath><clipPath id="ba457e2f9a"><path d="M 0 403.054688 L 540 403.054688 L 540 668.394531 L 0 668.394531 Z M 0 403.054688 " clip-rule="nonzero"/></clipPath><clipPath id="985f9b16d5"><path d="M 270 403.054688 C 108.082031 403.054688 -23.175781 462.453125 -23.175781 535.726562 C -23.175781 608.996094 108.082031 668.394531 270 668.394531 C 431.917969 668.394531 563.175781 608.996094 563.175781 535.726562 C 563.175781 462.453125 431.917969 403.054688 270 403.054688 " clip-rule="nonzero"/></clipPath><clipPath id="9477e92a30"><path d="M 0 0 L 540 0 L 540 530.683594 L 0 530.683594 Z M 0 0 " clip-rule="nonzero"/></clipPath><clipPath id="e01b2519bf"><path d="M -37.769531 -20.101562 L 668.816406 -20.101562 C 672.59375 -20.101562 676.21875 -18.601562 678.890625 -15.929688 C 681.5625 -13.257812 683.066406 -9.632812 683.066406 -5.851562 L 683.066406 516.433594 C 683.066406 520.210938 681.5625 523.835938 678.890625 526.507812 C 676.21875 529.179688 672.59375 530.683594 668.816406 530.683594 L -37.769531 530.683594 C -41.546875 530.683594 -45.171875 529.179688 -47.84375 526.507812 C -50.515625 523.835938 -52.019531 520.210938 -52.019531 516.433594 L -52.019531 -5.851562 C -52.019531 -9.632812 -50.515625 -13.257812 -47.84375 -15.929688 C -45.171875 -18.601562 -41.546875 -20.101562 -37.769531 -20.101562 " clip-rule="nonzero"/></clipPath><clipPath id="145e3997d0"><path d="M 36 490 L 87 490 L 87 542 L 36 542 Z M 36 490 " clip-rule="nonzero"/></clipPath><clipPath id="859415c177"><path d="M 28.59375 500.035156 L 76.363281 480.136719 L 95.6875 526.523438 L 47.914062 546.421875 Z M 28.59375 500.035156 " clip-rule="nonzero"/></clipPath><clipPath id="9f79bb6cf4"><path d="M 28.59375 500.035156 L 76.363281 480.136719 L 95.6875 526.523438 L 47.914062 546.421875 Z M 28.59375 500.035156 " clip-rule="nonzero"/></clipPath><clipPath id="35ddc8fbca"><path d="M 385 27 L 540 27 L 540 197 L 385 197 Z M 385 27 " clip-rule="nonzero"/></clipPath><clipPath id="8036632655"><path d="M 374.21875 39.75 L 544.65625 13.148438 L 570.445312 178.398438 L 400.011719 205 Z M 374.21875 39.75 " clip-rule="nonzero"/></clipPath><clipPath id="4354a5447f"><path d="M 374.21875 39.75 L 544.65625 13.148438 L 570.445312 178.398438 L 400.011719 205 Z M 374.21875 39.75 " clip-rule="nonzero"/></clipPath><clipPath id="782ffac4f1"><path d="M 71 278 L 205 278 L 205 417 L 71 417 Z M 71 278 " clip-rule="nonzero"/></clipPath><clipPath id="eb79b5c870"><path d="M 54 299.5 L 186.347656 255.398438 L 229.261719 384.183594 L 96.914062 428.285156 Z M 54 299.5 " clip-rule="nonzero"/></clipPath><clipPath id="5d1a0600f4"><path d="M 54 299.5 L 186.347656 255.398438 L 229.261719 384.183594 L 96.914062 428.285156 Z M 54 299.5 " clip-rule="nonzero"/></clipPath><clipPath id="ca53ad1fca"><path d="M 336 275 L 409 275 L 409 344 L 336 344 Z M 336 275 " clip-rule="nonzero"/></clipPath><clipPath id="9890f1c006"><path d="M 365.703125 254.527344 L 423.867188 296.964844 L 382.753906 353.3125 L 324.59375 310.875 Z M 365.703125 254.527344 " clip-rule="nonzero"/></clipPath><clipPath id="98c77d7dc2"><path d="M 365.703125 254.527344 L 423.867188 296.964844 L 382.753906 353.3125 L 324.59375 310.875 Z M 365.703125 254.527344 " clip-rule="nonzero"/></clipPath><clipPath id="07c9e6634c"><path d="M 51 0 L 242 0 L 242 149 L 51 149 Z M 51 0 " clip-rule="nonzero"/></clipPath><clipPath id="7937884e0a"><path d="M 15.085938 9.1875 L 182.160156 -86.929688 L 275.285156 74.945312 L 108.210938 171.058594 Z M 15.085938 9.1875 " clip-rule="nonzero"/></clipPath><clipPath id="b4349f98c3"><path d="M 15.085938 9.1875 L 182.160156 -86.929688 L 275.285156 74.945312 L 108.210938 171.058594 Z M 15.085938 9.1875 " clip-rule="nonzero"/></clipPath><clipPath id="b92feabd1f"><path d="M 438 389 L 540 389 L 540 621 L 438 621 Z M 438 389 " clip-rule="nonzero"/></clipPath><clipPath id="d9db5c073b"><path d="M 447.046875 375.640625 L 682.785156 400.054688 L 659.066406 629.082031 L 423.328125 604.667969 Z M 447.046875 375.640625 " clip-rule="nonzero"/></clipPath><clipPath id="fad4477942"><path d="M 447.046875 375.640625 L 682.785156 400.054688 L 659.066406 629.082031 L 423.328125 604.667969 Z M 447.046875 375.640625 " clip-rule="nonzero"/></clipPath></defs><rect x="-54" width="648" fill="#ffffff" y="-95.999999" height="1151.999986" fill-opacity="1"/><rect x="-54" width="648" fill="#ffffff" y="-95.999999" height="1151.999986" fill-opacity="1"/><rect x="-54" width="648" fill="#ffffff" y="-95.999999" height="1151.999986" fill-opacity="1"/><g clip-path="url(#af74b4110e)"><g clip-path="url(#7269224c90)"><path fill="#0081c9" d="M -43.488281 165.300781 L 691.59375 165.300781 L 691.59375 283.957031 L -43.488281 283.957031 Z M -43.488281 165.300781 " fill-opacity="1" fill-rule="nonzero"/></g></g><g clip-path="url(#ba457e2f9a)"><g clip-path="url(#985f9b16d5)"><path fill="#0081c9" d="M -23.175781 403.054688 L 563.175781 403.054688 L 563.175781 668.394531 L -23.175781 668.394531 Z M -23.175781 403.054688 " fill-opacity="1" fill-rule="nonzero"/></g></g><g clip-path="url(#9477e92a30)"><g clip-path="url(#e01b2519bf)"><path fill="#0081c9" d="M -52.019531 -20.101562 L 683.066406 -20.101562 L 683.066406 530.683594 L -52.019531 530.683594 Z M -52.019531 -20.101562 " fill-opacity="1" fill-rule="nonzero"/></g></g><g clip-path="url(#145e3997d0)"><g clip-path="url(#859415c177)"><g clip-path="url(#9f79bb6cf4)"><path fill="#1a8ecf" d="M 84.539062 530.414062 C 83.976562 530.648438 83.34375 530.710938 82.71875 530.566406 L 68 527.152344 L 60.058594 540.003906 C 59.378906 541.097656 58.085938 541.636719 56.832031 541.335938 C 55.582031 541.039062 54.664062 539.972656 54.554688 538.695312 L 53.09375 523.28125 L 38.566406 520.039062 C 37.320312 519.734375 36.40625 518.660156 36.300781 517.378906 C 36.199219 516.101562 36.929688 514.898438 38.109375 514.398438 L 52.007812 508.582031 L 50.890625 493.425781 C 50.792969 492.144531 51.527344 490.949219 52.714844 490.453125 C 53.898438 489.960938 55.265625 490.28125 56.109375 491.253906 L 66.007812 502.75 L 79.996094 496.949219 C 81.1875 496.464844 82.554688 496.792969 83.386719 497.765625 C 84.222656 498.742188 84.34375 500.148438 83.679688 501.25 L 75.75 513.847656 L 85.660156 525.738281 C 86.492188 526.714844 86.601562 528.117188 85.933594 529.214844 C 85.597656 529.769531 85.105469 530.179688 84.539062 530.414062 Z M 84.539062 530.414062 " fill-opacity="1" fill-rule="nonzero"/></g></g></g><g clip-path="url(#35ddc8fbca)"><g clip-path="url(#8036632655)"><g clip-path="url(#4354a5447f)"><path fill="#1a8ecf" d="M 531.269531 182.175781 C 529.261719 182.492188 527.167969 182.1875 525.257812 181.226562 L 480.3125 158.5625 L 444.410156 193.847656 C 441.351562 196.847656 436.730469 197.570312 432.917969 195.601562 C 429.105469 193.65625 426.976562 189.480469 427.632812 185.261719 L 435.117188 134.277344 L 390.652344 112.3125 C 386.859375 110.335938 384.753906 106.148438 385.429688 101.921875 C 386.113281 97.703125 389.425781 94.394531 393.644531 93.703125 L 443.246094 85.886719 L 451.640625 35.992188 C 452.347656 31.769531 455.675781 28.480469 459.90625 27.820312 C 464.132812 27.160156 468.308594 29.28125 470.269531 33.085938 L 493.199219 78.089844 L 543.082031 70.378906 C 547.324219 69.746094 551.492188 71.894531 553.414062 75.699219 C 555.351562 79.519531 554.621094 84.152344 551.605469 87.191406 L 515.949219 121.660156 L 538.617188 167.941406 C 540.535156 171.757812 539.765625 176.382812 536.738281 179.394531 C 535.210938 180.925781 533.289062 181.863281 531.269531 182.175781 Z M 531.269531 182.175781 " fill-opacity="1" fill-rule="nonzero"/></g></g></g><g clip-path="url(#782ffac4f1)"><g clip-path="url(#eb79b5c870)"><g clip-path="url(#5d1a0600f4)"><path fill="#1a8ecf" d="M 198.523438 392.457031 C 196.964844 392.976562 195.253906 393.011719 193.601562 392.5 L 154.6875 380.378906 L 130.824219 413.421875 C 128.789062 416.230469 125.199219 417.425781 121.890625 416.363281 C 118.589844 415.316406 116.328125 412.257812 116.28125 408.796875 L 115.355469 366.992188 L 76.921875 355.367188 C 73.625 354.292969 71.382812 351.222656 71.347656 347.75 C 71.324219 344.28125 73.515625 341.191406 76.789062 340.074219 L 115.296875 327.179688 L 115.246094 286.128906 C 115.238281 282.652344 117.449219 279.574219 120.730469 278.480469 C 124.015625 277.386719 127.632812 278.527344 129.710938 281.308594 L 154.085938 314.253906 L 192.828125 301.40625 C 196.128906 300.332031 199.742188 301.496094 201.792969 304.28125 C 203.851562 307.078125 203.894531 310.882812 201.902344 313.71875 L 178.121094 346.078125 L 202.457031 380.078125 C 204.503906 382.875 204.515625 386.683594 202.511719 389.496094 C 201.5 390.925781 200.09375 391.933594 198.523438 392.457031 Z M 198.523438 392.457031 " fill-opacity="1" fill-rule="nonzero"/></g></g></g><g clip-path="url(#ca53ad1fca)"><g clip-path="url(#9890f1c006)"><g clip-path="url(#98c77d7dc2)"><path fill="#1a8ecf" d="M 370.074219 342.867188 C 369.390625 342.367188 368.863281 341.660156 368.578125 340.8125 L 361.992188 320.867188 L 340.992188 320.683594 C 339.203125 320.664062 337.625 319.515625 337.078125 317.808594 C 336.527344 316.109375 337.132812 314.25 338.566406 313.203125 L 355.8125 300.375 L 349.160156 280.777344 C 348.621094 279.074219 349.234375 277.21875 350.679688 276.171875 C 352.128906 275.128906 354.082031 275.132812 355.53125 276.171875 L 372.480469 288.5 L 389.667969 276.265625 C 391.121094 275.226562 393.074219 275.238281 394.519531 276.292969 C 395.960938 277.34375 396.566406 279.203125 396.027344 280.902344 L 389.527344 300.941406 L 406.527344 313.382812 C 407.964844 314.449219 408.5625 316.3125 408.007812 318 C 407.453125 319.699219 405.875 320.847656 404.085938 320.855469 L 383.394531 320.5 L 376.441406 340.835938 C 375.882812 342.527344 374.292969 343.664062 372.511719 343.660156 C 371.609375 343.660156 370.765625 343.371094 370.074219 342.867188 Z M 370.074219 342.867188 " fill-opacity="1" fill-rule="nonzero"/></g></g></g><g clip-path="url(#07c9e6634c)"><g clip-path="url(#7937884e0a)"><g clip-path="url(#b4349f98c3)"><path fill="#1a8ecf" d="M 235.945312 94.601562 C 233.976562 95.734375 231.671875 96.257812 229.292969 96.027344 L 173.339844 90.4375 L 150.042969 141.617188 C 148.054688 145.972656 143.527344 148.578125 138.757812 148.058594 C 134.007812 147.5625 130.113281 144.0625 129.105469 139.40625 L 116.480469 83.265625 L 61.308594 78.21875 C 56.558594 77.679688 52.683594 74.15625 51.695312 69.484375 C 50.71875 64.8125 52.84375 60.035156 56.96875 57.621094 L 105.5625 29.570312 L 94.324219 -25.796875 C 93.363281 -30.480469 95.519531 -35.246094 99.664062 -37.628906 C 103.808594 -40.015625 109.011719 -39.476562 112.582031 -36.300781 L 154.53125 1.398438 L 203.460938 -26.652344 C 207.632812 -29.011719 212.839844 -28.445312 216.367188 -25.253906 C 219.917969 -22.046875 221.011719 -16.929688 219.085938 -12.550781 L 195.714844 37.679688 L 237.898438 76.816406 C 241.429688 80.023438 242.484375 85.15625 240.535156 89.507812 C 239.554688 91.714844 237.925781 93.460938 235.945312 94.601562 Z M 235.945312 94.601562 " fill-opacity="1" fill-rule="nonzero"/></g></g></g><g clip-path="url(#b92feabd1f)"><g clip-path="url(#d9db5c073b)"><g clip-path="url(#fad4477942)"><path fill="#1a8ecf" d="M 605.695312 620.359375 C 602.917969 620.074219 600.246094 618.933594 598.042969 616.988281 L 546.292969 571.039062 L 486.222656 605.40625 C 481.105469 608.328125 474.714844 607.664062 470.335938 603.707031 C 465.957031 599.78125 464.597656 593.476562 466.945312 588.089844 L 494.777344 522.847656 L 443.417969 478.003906 C 439.070312 474.039062 437.746094 467.722656 440.125 462.335938 C 442.515625 456.960938 448.074219 453.71875 453.921875 454.28125 L 522.554688 461.285156 L 551.210938 397.816406 C 553.632812 392.4375 559.207031 389.230469 565.058594 389.835938 C 570.90625 390.445312 575.707031 394.730469 576.980469 400.484375 L 591.648438 468.441406 L 660.613281 475.6875 C 666.472656 476.335938 671.257812 480.65625 672.476562 486.398438 C 673.703125 492.160156 671.113281 498.070312 666.039062 501.058594 L 606.578125 534.425781 L 620.453125 603.988281 C 621.660156 609.742188 619.015625 615.632812 613.9375 618.578125 C 611.375 620.078125 608.492188 620.648438 605.695312 620.359375 Z M 605.695312 620.359375 " fill-opacity="1" fill-rule="nonzero"/></g></g></g></svg>