<?xml version="1.0" standalone="no"?><!DOCTYPE svg PUBLIC "-//W3C//DTD SVG 1.1//EN" "http://www.w3.org/Graphics/SVG/1.1/DTD/svg11.dtd"><svg t="1693458361074" class="icon" viewBox="0 0 1024 1024" version="1.1" xmlns="http://www.w3.org/2000/svg" p-id="2588" xmlns:xlink="http://www.w3.org/1999/xlink" width="200" height="200"><path d="M457.4 536.7v-1.2-1.1 2.3zM347.7 534.5v2.3-2.3zM946.1 833.9c-17-110.3-79-201.7-165.5-243.1 62.3-40.3 99.9-115.2 84.6-197.7-13.2-71-68.4-130.2-138.3-148.6-45.2-11.9-88.2-7-125.5 9-27.6-59-81.9-104.3-146.1-119.2-144.1-33.6-272.1 74.8-272.1 213.2 0 80.1 43.4 149.4 107.5 187.8C180.2 582 97 695.7 77.8 834.6c-4.5 32.5 21.9 61.2 54.7 61.2h599.1v-0.2h159.9c33 0 59.6-29.1 54.6-61.7z m-813.8 7c16.5-116 84.6-214.9 179.8-255.1l2.1-0.9c9.6-4.1 18.1-10.9 24.4-20.2 6-9 8.9-19.2 9.1-29.2a54.4 54.4 0 0 0-7.2-25.9c-4.9-8.5-11.6-15.3-19.6-20l-2.1-1.3c-50.6-30.2-80.7-82.8-80.7-140.6 0-90.7 73.7-164.5 164.5-164.5S567 257.1 567 347.8c0 57.8-30.2 110.4-80.7 140.6l-2.1 1.3c-7.9 4.8-14.7 11.4-19.6 20-4.6 8.2-7 17-7.2 25.8 0.2 10 3.1 20.2 9.1 29.2 6.2 9.3 14.7 16.1 24.4 20.2l2.1 0.9c95.2 40.2 163.3 139 179.8 255.2H132.3z m595.9-0.1c-17.5-141.7-101.5-258.1-213.8-305.6 74.8-44.7 121.4-131.7 103.7-228.8 17.9-8.5 37.5-13.7 58.6-13.7 86.9 0 155.2 81.3 132.7 171.8-8.6 34.8-33.1 63.7-63.3 83.1l10.4-6.7c-7.5 4.9-13.9 11.4-18.4 19.8-4.6 8.3-6.7 17.4-6.7 26.2v6.5c0 10 2.7 20.2 8.4 29.2 5.7 9.1 13.7 15.9 22.7 20.2l-5.8-2.8c72.2 34.5 122.6 110.1 135.6 200.8H728.2z" p-id="2589" fill="#ffffff"></path></svg>