<svg xmlns="http://www.w3.org/2000/svg" xmlns:xlink="http://www.w3.org/1999/xlink" width="80" zoomAndPan="magnify" viewBox="0 0 60 30.000001" height="40" preserveAspectRatio="xMidYMid meet" version="1.0"><defs><g/><clipPath id="475391a89d"><path d="M 3 11 L 12 11 L 12 20 L 3 20 Z M 3 11 " clip-rule="nonzero"/></clipPath><clipPath id="3d66454485"><path d="M 3.503906 12.078125 L 11.484375 11.800781 L 11.734375 19.054688 L 3.757812 19.332031 Z M 3.503906 12.078125 " clip-rule="nonzero"/></clipPath><clipPath id="d88f47b422"><path d="M 3.386719 11.972656 L 11.554688 11.6875 L 11.8125 19.105469 L 3.644531 19.386719 Z M 3.386719 11.972656 " clip-rule="nonzero"/></clipPath><clipPath id="4d89b941cb"><path d="M 4.253906 12.050781 L 10.734375 11.828125 C 10.933594 11.820312 11.125 11.890625 11.273438 12.019531 C 11.417969 12.148438 11.503906 12.328125 11.507812 12.519531 L 11.710938 18.332031 C 11.714844 18.523438 11.644531 18.710938 11.507812 18.851562 C 11.371094 18.992188 11.183594 19.074219 10.984375 19.082031 L 4.507812 19.304688 C 4.308594 19.3125 4.113281 19.242188 3.96875 19.113281 C 3.824219 18.980469 3.738281 18.800781 3.730469 18.609375 L 3.53125 12.796875 C 3.523438 12.605469 3.597656 12.421875 3.730469 12.28125 C 3.867188 12.140625 4.054688 12.058594 4.253906 12.050781 " clip-rule="nonzero"/></clipPath><clipPath id="7beffbdf90"><path d="M 5 10 L 13 10 L 13 18 L 5 18 Z M 5 10 " clip-rule="nonzero"/></clipPath><clipPath id="50604274b5"><path d="M 5.484375 10.546875 L 12.738281 10.804688 L 12.476562 18.058594 L 5.222656 17.800781 Z M 5.484375 10.546875 " clip-rule="nonzero"/></clipPath><clipPath id="389a957757"><path d="M 5.484375 10.546875 L 12.738281 10.804688 L 12.476562 18.058594 L 5.222656 17.800781 Z M 5.484375 10.546875 " clip-rule="nonzero"/></clipPath><clipPath id="8b0738f917"><path d="M 1 17 L 55 17 L 55 25 L 1 25 Z M 1 17 " clip-rule="nonzero"/></clipPath><clipPath id="bbcaff437e"><path d="M 1.164062 16.9375 L 54.855469 18.273438 L 54.65625 26.253906 L 0.964844 24.921875 Z M 1.164062 16.9375 " clip-rule="nonzero"/></clipPath><clipPath id="fa22b313a3"><path d="M 1.164062 16.9375 L 54.855469 18.273438 L 54.65625 26.253906 L 0.964844 24.921875 Z M 1.164062 16.9375 " clip-rule="nonzero"/></clipPath><clipPath id="cb6fdb8c04"><path d="M 52 7 L 57 7 L 57 12 L 52 12 Z M 52 7 " clip-rule="nonzero"/></clipPath><clipPath id="e2bd9c4cd7"><path d="M 51.847656 8.058594 L 56.042969 6.878906 L 57.21875 11.070312 L 53.027344 12.25 Z M 51.847656 8.058594 " clip-rule="nonzero"/></clipPath><clipPath id="669de98949"><path d="M 51.847656 8.058594 L 56.042969 6.878906 L 57.21875 11.070312 L 53.027344 12.25 Z M 51.847656 8.058594 " clip-rule="nonzero"/></clipPath></defs><g clip-path="url(#475391a89d)"><g clip-path="url(#3d66454485)"><g clip-path="url(#d88f47b422)"><g clip-path="url(#4d89b941cb)"><path stroke-linecap="butt" transform="matrix(0.749871, -0.0259565, 0.0249526, 0.720867, 3.505597, 12.076603)" fill="none" stroke-linejoin="miter" d="M 0.997914 0.000111288 L 9.639953 0.00241551 C 9.905666 0.00114549 10.157371 0.107748 10.349142 0.293474 C 10.535709 0.479013 10.641891 0.732102 10.638269 0.997494 L 10.640836 9.060798 C 10.637214 9.32619 10.534915 9.58261 10.346327 9.770897 C 10.157738 9.959184 9.904212 10.063851 9.638499 10.065121 L 1.001663 10.063004 C 0.73595 10.064274 0.479042 9.957484 0.292475 9.771945 C 0.106087 9.580994 -0.0000943532 9.327905 -0.00167545 9.062325 L 0.000960504 0.999209 C -0.00062059 0.73363 0.106701 0.482809 0.290087 0.294335 C 0.478675 0.106048 0.732201 0.0013813 0.997914 0.000111288 " stroke="#ffc93c" stroke-width="2" stroke-opacity="1" stroke-miterlimit="4"/></g></g></g></g><g clip-path="url(#7beffbdf90)"><g clip-path="url(#50604274b5)"><g clip-path="url(#389a957757)"><path fill="#ffffff" d="M 6.367188 17.800781 C 6.203125 17.773438 6.0625 17.738281 6.054688 17.71875 C 6.042969 17.703125 6 17.628906 5.953125 17.550781 C 5.824219 17.335938 5.738281 17.105469 5.605469 16.621094 C 5.367188 15.753906 5.320312 15.527344 5.363281 15.394531 C 5.425781 15.1875 5.921875 14.910156 6.222656 14.914062 C 6.464844 14.914062 6.492188 14.9375 6.625 15.226562 C 6.703125 15.398438 6.816406 15.667969 6.875 15.832031 C 6.9375 15.992188 7.03125 16.125 7.082031 16.128906 C 7.132812 16.128906 7.339844 15.898438 7.539062 15.617188 C 7.738281 15.332031 7.929688 15.070312 7.96875 15.03125 C 8.003906 14.992188 8.078125 14.886719 8.132812 14.800781 C 8.359375 14.414062 10.15625 12.183594 10.6875 11.628906 C 10.808594 11.5 10.910156 11.375 10.910156 11.347656 C 10.910156 11.320312 11.082031 11.199219 11.285156 11.078125 C 11.566406 10.914062 11.765625 10.855469 12.082031 10.835938 C 12.667969 10.804688 12.71875 10.855469 12.460938 11.21875 C 12.34375 11.378906 12.1875 11.570312 12.113281 11.644531 C 12.035156 11.714844 11.8125 11.96875 11.613281 12.203125 C 11.410156 12.441406 11.214844 12.664062 11.167969 12.699219 C 11.125 12.734375 11.011719 12.871094 10.917969 12.996094 C 10.824219 13.125 10.726562 13.242188 10.707031 13.261719 C 10.515625 13.417969 8.464844 16.003906 8.285156 16.308594 C 8.234375 16.398438 8.171875 16.488281 8.148438 16.507812 C 8.125 16.523438 7.914062 16.796875 7.679688 17.117188 C 7.445312 17.433594 7.21875 17.714844 7.175781 17.738281 C 7.023438 17.824219 6.652344 17.851562 6.367188 17.800781 Z M 6.367188 17.800781 " fill-opacity="1" fill-rule="nonzero"/></g></g></g><g clip-path="url(#8b0738f917)"><g clip-path="url(#bbcaff437e)"><g clip-path="url(#fa22b313a3)"><path fill="#ffc93c" d="M 1.765625 24.972656 C 1.464844 24.964844 1.195312 24.769531 1.09375 24.464844 C 0.964844 24.074219 1.171875 23.652344 1.554688 23.519531 C 5.082031 22.3125 8.71875 21.230469 12.347656 20.316406 C 16.742188 19.203125 21.25 18.300781 25.742188 17.636719 C 26.105469 17.585938 26.457031 17.816406 26.550781 18.183594 C 26.644531 18.554688 26.453125 18.9375 26.105469 19.070312 L 21.042969 21.074219 C 24.265625 20.65625 27.503906 20.304688 30.726562 20.011719 C 38.457031 19.316406 46.316406 18.972656 54.085938 18.996094 C 54.515625 18.984375 54.816406 19.335938 54.8125 19.746094 C 54.808594 20.152344 54.480469 20.488281 54.078125 20.488281 C 46.351562 20.464844 38.535156 20.808594 30.851562 21.496094 C 25.597656 21.972656 20.28125 22.621094 15.054688 23.421875 C 14.691406 23.472656 14.339844 23.242188 14.246094 22.875 C 14.152344 22.507812 14.34375 22.125 14.691406 21.992188 L 18.792969 20.363281 C 16.746094 20.78125 14.710938 21.246094 12.699219 21.753906 C 9.105469 22.664062 5.511719 23.730469 2.019531 24.925781 C 1.941406 24.953125 1.851562 24.964844 1.773438 24.964844 Z M 1.765625 24.972656 " fill-opacity="1" fill-rule="nonzero"/></g></g></g><g fill="#ffffff" fill-opacity="1"><g transform="translate(12.684878, 18.589302)"><g><path d="M 2.425781 -7.226562 L 1.457031 -7.207031 C 1.382812 -7.195312 1.324219 -7.167969 1.277344 -7.121094 C 1.195312 -7.023438 1.1875 -6.878906 1.191406 -6.734375 L 1.199219 -6.171875 C 1.347656 -5.945312 2.003906 -6.054688 2.1875 -6.035156 L 1.140625 -2.429688 L 1.023438 -2.238281 C 0.976562 -2.1875 0.933594 -1.996094 0.933594 -1.949219 C 0.9375 -1.753906 0.976562 -1.527344 1.089844 -1.351562 C 1.1875 -1.160156 1.359375 -1.019531 1.609375 -1.027344 C 1.742188 -1.027344 1.847656 -1.113281 1.941406 -1.273438 C 2.113281 -1.597656 2.226562 -2.007812 2.304688 -2.40625 C 2.3125 -2.5 2.414062 -2.816406 2.492188 -3.105469 L 2.652344 -3.671875 C 2.648438 -3.695312 2.832031 -4.285156 3.011719 -4.816406 C 3.113281 -5.140625 3.226562 -5.503906 3.363281 -5.902344 L 4.382812 -5.945312 C 4.46875 -5.671875 4.472656 -5.527344 4.476562 -5.25 C 4.480469 -5.121094 4.476562 -4.757812 4.445312 -4.386719 C 4.417969 -4.003906 4.339844 -3.128906 4.246094 -3.03125 C 4.1875 -2.96875 4.125 -2.941406 4.066406 -2.929688 C 3.925781 -2.878906 3.78125 -2.839844 3.648438 -2.777344 C 3.519531 -2.714844 3.496094 -2.632812 3.449219 -2.546875 C 3.40625 -2.449219 3.359375 -2.367188 3.324219 -2.269531 C 3.328125 -2.171875 3.378906 -1.851562 3.429688 -1.804688 C 3.441406 -1.769531 3.550781 -1.699219 3.683594 -1.617188 L 3.855469 -1.5 L 4 -1.429688 C 4.023438 -1.429688 4.046875 -1.433594 4.082031 -1.421875 L 4.253906 -1.398438 C 4.382812 -1.367188 4.492188 -1.355469 4.550781 -1.355469 L 4.648438 -1.359375 C 4.851562 -1.363281 5.078125 -1.414062 5.257812 -1.527344 C 5.433594 -1.625 5.5625 -1.785156 5.570312 -2.023438 L 5.644531 -2.539062 C 5.695312 -2.960938 5.738281 -3.945312 5.789062 -4.316406 L 5.808594 -4.664062 L 5.773438 -6.4375 C 5.773438 -6.488281 5.734375 -6.617188 5.683594 -6.761719 C 5.621094 -6.890625 5.535156 -6.996094 5.476562 -6.996094 L 3.507812 -7.148438 C 3.507812 -7.1875 3.601562 -7.929688 3.597656 -7.992188 C 3.542969 -8.410156 3.3125 -8.453125 2.929688 -8.445312 L 2.65625 -8.441406 C 2.605469 -8.441406 2.464844 -8.304688 2.46875 -8.257812 Z M 6.683594 -2.8125 L 7.054688 -2.820312 C 7.542969 -2.828125 8.035156 -2.875 8.511719 -2.957031 C 8.980469 -3.035156 9.46875 -3.070312 9.960938 -3.054688 C 10.152344 -3.167969 10.273438 -3.636719 10.359375 -4.117188 C 10.433594 -4.597656 10.472656 -5.078125 10.46875 -5.269531 L 10.46875 -5.414062 C 10.378906 -5.652344 10.242188 -5.839844 10.0625 -5.96875 C 9.710938 -6.203125 9.277344 -6.289062 8.808594 -6.292969 C 8.570312 -6.289062 8.339844 -6.296875 8.113281 -6.304688 L 6.710938 -6.277344 C 6.617188 -6.273438 6.546875 -6.191406 6.464844 -6.09375 C 6.382812 -5.972656 6.347656 -5.875 6.347656 -5.800781 L 6.402344 -3.082031 Z M 7.410156 -4.277344 C 7.40625 -4.324219 7.40625 -4.394531 7.417969 -4.492188 C 7.425781 -4.683594 7.46875 -4.902344 7.515625 -5.058594 C 7.523438 -5.128906 7.535156 -5.164062 7.570312 -5.167969 L 8.890625 -5.191406 C 9.082031 -5.195312 9.191406 -5.003906 9.28125 -4.804688 C 9.367188 -4.601562 9.371094 -4.363281 9.375 -4.265625 C 9.375 -4.21875 9.378906 -4.074219 9.28125 -4.074219 L 7.59375 -4.039062 C 7.367188 -4.035156 7.410156 -4.132812 7.410156 -4.277344 Z M 7.410156 -4.277344 "/></g></g></g><g fill="#ffffff" fill-opacity="1"><g transform="translate(22.884352, 18.39443)"><g><path d="M 3.695312 -7.226562 C 3.703125 -6.925781 3.933594 -6.785156 4.175781 -6.613281 C 4.417969 -6.4375 4.648438 -6.285156 4.65625 -5.984375 C 4.660156 -5.855469 4.648438 -5.757812 4.636719 -5.671875 C 4.605469 -5.492188 4.464844 -5.359375 4.242188 -5.125 L 3.886719 -4.75 L 3.523438 -4.382812 L 3.289062 -4.125 C 3.136719 -3.992188 2.945312 -3.878906 2.730469 -3.792969 C 2.507812 -3.703125 2.292969 -3.601562 2.089844 -3.503906 C 1.675781 -3.304688 1.34375 -3.035156 1.355469 -2.507812 C 1.359375 -2.171875 1.640625 -1.949219 1.964844 -1.957031 C 2.429688 -1.964844 2.894531 -2.140625 3.335938 -2.390625 C 3.773438 -2.636719 5.226562 -4.332031 5.332031 -4.546875 L 5.410156 -4.683594 L 5.609375 -5.019531 L 9.226562 -1.902344 C 9.375 -1.761719 9.699219 -1.71875 9.878906 -1.722656 C 10.550781 -1.734375 10.816406 -2.207031 10.804688 -2.820312 L 10.796875 -3.15625 C 10.664062 -3.308594 10.242188 -3.433594 9.773438 -3.554688 C 9.300781 -3.675781 8.433594 -4.03125 8.347656 -4.089844 C 8.238281 -4.148438 8.191406 -4.183594 8.152344 -4.21875 C 7.46875 -4.816406 6.777344 -5.402344 6.152344 -6.0625 C 6.003906 -6.226562 5.871094 -6.40625 5.757812 -6.582031 C 5.648438 -6.757812 5.535156 -6.914062 5.402344 -7.054688 C 5.15625 -7.335938 4.855469 -7.535156 4.339844 -7.527344 C 4.109375 -7.519531 3.96875 -7.519531 3.695312 -7.417969 Z M 3.695312 -7.226562 "/></g></g></g><g fill="#ffffff" fill-opacity="1"><g transform="translate(33.083826, 18.199558)"><g><path d="M 6.054688 -7.976562 C 6.0625 -7.582031 6.105469 -7.1875 6.175781 -6.792969 C 6.242188 -6.398438 6.277344 -5.886719 6.285156 -5.464844 L 4.75 -5.4375 C 4.699219 -5.675781 4.738281 -6.035156 4.601562 -6.210938 C 4.457031 -6.390625 4.261719 -6.492188 3.976562 -6.488281 C 3.9375 -6.488281 3.890625 -6.488281 3.808594 -6.472656 C 3.652344 -6.457031 3.496094 -6.429688 3.367188 -6.378906 C 3.304688 -6.355469 3.269531 -6.332031 3.273438 -6.292969 L 3.289062 -5.410156 L 1.707031 -5.378906 C 1.527344 -5.375 1.421875 -5.289062 1.375 -5.109375 C 1.332031 -4.925781 1.335938 -4.722656 1.339844 -4.617188 L 1.339844 -4.4375 C 1.34375 -4.351562 1.40625 -4.246094 1.441406 -4.199219 L 3.3125 -4.234375 L 3.359375 -4.1875 C 3.394531 -4.152344 3.410156 -4.128906 3.410156 -4.105469 L 3.425781 -3.300781 L 2.804688 -3.109375 L 2.210938 -2.929688 C 1.792969 -2.828125 1.472656 -2.675781 1.480469 -2.136719 C 1.484375 -1.945312 1.441406 -1.71875 1.683594 -1.675781 L 2.054688 -1.679688 C 2.246094 -1.683594 2.460938 -1.726562 2.6875 -1.789062 C 2.890625 -1.851562 3.210938 -2.027344 3.4375 -2.03125 C 3.4375 -2.007812 3.375 -1.597656 3.375 -1.574219 C 3.375 -1.5625 3.363281 -1.5625 3.328125 -1.527344 L 2.921875 -1.363281 L 2.828125 -1.203125 C 2.792969 -1.167969 2.78125 -1.132812 2.78125 -1.121094 L 2.789062 -0.796875 C 2.800781 -0.28125 3.523438 -0.03125 4.003906 -0.0390625 C 4.242188 -0.046875 4.5625 -0.183594 4.703125 -0.425781 L 4.820312 -2.441406 C 4.855469 -2.515625 5.628906 -2.71875 5.710938 -2.78125 C 5.890625 -2.894531 6.027344 -3.136719 6.023438 -3.328125 C 6.015625 -3.746094 5.871094 -3.78125 5.691406 -3.789062 C 5.523438 -3.785156 4.773438 -3.554688 4.769531 -3.855469 L 4.765625 -3.925781 C 4.753906 -3.960938 4.753906 -3.996094 4.765625 -4.035156 C 4.761719 -4.117188 4.773438 -4.285156 4.855469 -4.324219 C 5.320312 -4.378906 5.835938 -4.378906 6.269531 -4.386719 C 6.351562 -4.386719 6.460938 -4.390625 6.519531 -4.402344 C 6.789062 -3.496094 6.867188 -3.152344 7.179688 -2.535156 L 7.058594 -2.472656 L 6.679688 -2.273438 L 6.5 -2.234375 L 6.226562 -2.203125 C 6.023438 -2.164062 5.808594 -2.160156 5.746094 -2.160156 L 5.613281 -1.75 L 5.613281 -1.652344 C 5.621094 -1.316406 5.71875 -1.140625 5.902344 -1.046875 C 6.082031 -0.941406 6.324219 -0.921875 6.609375 -0.929688 C 6.945312 -0.9375 7.132812 -1.070312 7.3125 -1.21875 L 7.714844 -1.476562 L 8.316406 -0.648438 C 8.378906 -0.507812 8.453125 -0.378906 8.539062 -0.257812 C 8.726562 -0.0234375 9.136719 0.136719 9.53125 0.128906 L 9.769531 0.125 C 10.058594 0.0585938 10.1875 -0.0742188 10.265625 -0.21875 C 10.347656 -0.378906 10.472656 -0.789062 10.46875 -1.027344 L 10.308594 -1.277344 C 10.222656 -1.308594 10.125 -1.308594 10.042969 -1.320312 C 9.839844 -1.316406 9.671875 -1.324219 9.515625 -1.355469 C 9.359375 -1.390625 9.238281 -1.445312 9.140625 -1.539062 C 9.066406 -1.574219 8.769531 -2.050781 8.769531 -2.109375 L 8.792969 -2.179688 L 9.613281 -3.035156 L 9.609375 -3.277344 C 9.605469 -3.417969 9.589844 -3.585938 9.527344 -3.730469 C 9.464844 -3.871094 9.367188 -3.976562 9.175781 -3.976562 L 9.03125 -3.972656 L 8.289062 -3.394531 L 8.253906 -3.394531 C 8.15625 -3.390625 8 -4.035156 8 -4.085938 L 7.957031 -4.515625 L 9.585938 -4.605469 C 9.808594 -4.742188 9.855469 -4.921875 9.847656 -5.148438 C 9.847656 -5.292969 9.792969 -5.617188 9.566406 -5.613281 L 7.695312 -5.578125 L 7.640625 -5.886719 C 7.601562 -6.066406 7.585938 -6.246094 7.585938 -6.378906 C 7.570312 -6.519531 7.554688 -6.675781 7.5625 -6.855469 C 7.558594 -7.035156 7.542969 -7.203125 7.53125 -7.382812 C 7.476562 -7.730469 7.371094 -8.050781 7.082031 -8.238281 L 6.960938 -8.296875 L 6.609375 -8.46875 C 6.550781 -8.492188 6.511719 -8.503906 6.511719 -8.503906 C 6.464844 -8.5 6.273438 -8.449219 6.226562 -8.414062 C 6.003906 -8.265625 6.050781 -8.21875 6.054688 -7.976562 Z M 1.914062 -6.988281 C 1.917969 -6.855469 2.0625 -6.773438 2.246094 -6.71875 C 2.425781 -6.664062 2.605469 -6.628906 2.664062 -6.628906 C 2.964844 -6.648438 3.265625 -6.679688 3.5625 -6.71875 C 4.078125 -6.789062 4.660156 -6.910156 5.042969 -7.121094 C 5.21875 -7.230469 5.371094 -7.402344 5.363281 -7.84375 L 5.363281 -7.894531 C 5.308594 -8.226562 5.304688 -8.359375 4.980469 -8.351562 L 4.789062 -8.347656 C 4.707031 -8.347656 4.417969 -8.292969 4.132812 -8.203125 C 3.847656 -8.117188 3.550781 -8.050781 3.488281 -8.050781 C 3.261719 -8.007812 3.070312 -7.980469 2.878906 -7.976562 C 2.675781 -7.960938 2.507812 -7.921875 2.378906 -7.882812 C 2.09375 -7.78125 1.90625 -7.550781 1.914062 -6.988281 Z M 7.941406 -7.054688 C 7.949219 -6.816406 8.082031 -6.613281 8.265625 -6.472656 C 8.449219 -6.320312 8.863281 -5.898438 9.054688 -5.902344 C 9.378906 -5.90625 9.519531 -6.1875 9.511719 -6.511719 C 9.507812 -6.714844 9.234375 -7.296875 9.097656 -7.496094 C 8.9375 -7.683594 8.730469 -7.824219 8.492188 -7.820312 C 8.0625 -7.8125 7.933594 -7.472656 7.941406 -7.054688 Z M 7.941406 -7.054688 "/></g></g></g><g fill="#ffffff" fill-opacity="1"><g transform="translate(43.283301, 18.004686)"><g><path d="M 0.492188 -6.230469 C 0.21875 -6.082031 0.226562 -5.757812 0.230469 -5.46875 C 0.238281 -5.171875 0.445312 -4.980469 0.722656 -4.890625 C 1 -4.800781 1.3125 -4.78125 1.550781 -4.835938 L 1.648438 -4.753906 L 1.660156 -4.046875 C 1.671875 -3.53125 1.667969 -3.003906 1.644531 -2.476562 C 1.617188 -1.949219 1.613281 -1.421875 1.625 -0.90625 L 1.632812 -0.4375 C 1.785156 -0.117188 1.976562 -0.0742188 2.300781 -0.078125 C 2.648438 -0.0859375 2.8125 -0.222656 2.890625 -0.425781 C 2.972656 -0.632812 2.941406 -0.917969 2.9375 -1.21875 C 2.925781 -1.828125 2.902344 -2.441406 2.855469 -3.0625 C 2.804688 -3.683594 2.78125 -4.296875 2.769531 -4.90625 C 2.765625 -5.195312 2.757812 -5.566406 2.945312 -5.808594 C 3.003906 -5.90625 3.203125 -6.136719 3.402344 -6.382812 L 3.859375 -6.941406 L 3.855469 -7.039062 C 3.855469 -7.179688 3.742188 -7.464844 3.59375 -7.703125 C 3.445312 -7.941406 3.234375 -8.152344 3.082031 -8.148438 C 2.996094 -8.148438 2.925781 -8.097656 2.84375 -8 C 2.667969 -7.792969 2.503906 -7.503906 2.367188 -7.222656 L 2.167969 -6.910156 C 1.757812 -6.386719 1.164062 -6.242188 0.492188 -6.230469 Z M 6.621094 -6.695312 C 6.550781 -6.453125 6.84375 -6.363281 6.902344 -6.363281 C 6.949219 -6.328125 7.226562 -6.285156 7.273438 -6.289062 L 8.871094 -6.199219 C 8.929688 -6.199219 9.003906 -6.1875 9.0625 -6.152344 C 9.195312 -6.097656 9.328125 -5.992188 9.425781 -5.898438 C 9.476562 -5.839844 9.515625 -5.777344 9.539062 -5.71875 L 9.589844 -5.625 C 9.628906 -5.480469 9.628906 -5.3125 9.632812 -5.253906 L 9.695312 -4.441406 C 9.738281 -4.019531 9.757812 -3.625 9.757812 -3.613281 L 9.761719 -3.519531 C 9.761719 -3.484375 9.761719 -3.421875 9.753906 -3.339844 L 9.722656 -3.0625 C 9.6875 -2.859375 9.679688 -2.640625 9.683594 -2.582031 C 9.589844 -2.425781 9.316406 -2.359375 9.066406 -2.320312 C 8.933594 -2.304688 8.824219 -2.277344 8.730469 -2.265625 C 8.621094 -2.25 8.574219 -2.226562 8.574219 -2.1875 L 8.484375 -1.949219 C 8.4375 -1.804688 8.40625 -1.636719 8.46875 -1.492188 C 8.582031 -1.207031 8.824219 -1.042969 8.875 -1.042969 L 10.371094 -1.097656 C 10.476562 -1.097656 10.632812 -1.1875 10.738281 -1.296875 C 10.84375 -1.40625 10.925781 -1.5625 10.921875 -1.671875 C 10.882812 -2.484375 10.84375 -3.226562 10.820312 -3.898438 C 10.761719 -5.046875 10.714844 -6.222656 10.710938 -6.425781 C 10.691406 -6.820312 10.582031 -6.867188 10.546875 -6.914062 L 10.449219 -7.007812 C 10.339844 -7.089844 10.21875 -7.160156 10.085938 -7.191406 C 9.941406 -7.214844 9.246094 -7.285156 8.597656 -7.332031 L 7.335938 -7.4375 C 7.15625 -7.472656 6.941406 -7.503906 6.785156 -7.40625 C 6.632812 -7.304688 6.675781 -6.921875 6.621094 -6.695312 Z M 3.921875 -5.550781 C 3.921875 -5.515625 3.921875 -5.457031 3.914062 -5.371094 L 3.882812 -5.097656 C 3.851562 -4.890625 3.84375 -4.675781 3.84375 -4.617188 L 3.863281 -3.585938 C 3.863281 -3.527344 3.867188 -3.429688 3.878906 -3.296875 C 3.898438 -3.011719 3.929688 -2.675781 3.96875 -2.390625 C 3.984375 -2.246094 3.984375 -2.148438 3.988281 -2.089844 C 4.003906 -1.898438 4.019531 -1.671875 4.105469 -1.445312 C 4.195312 -1.21875 4.316406 -1.066406 4.570312 -1.070312 C 4.820312 -1.074219 4.960938 -1.246094 5.042969 -1.476562 C 5.121094 -1.703125 5.117188 -1.957031 5.113281 -2.109375 L 5.046875 -5.488281 C 4.976562 -5.546875 4.925781 -5.582031 4.902344 -5.617188 L 4.792969 -5.710938 C 4.757812 -5.722656 4.734375 -5.734375 4.695312 -5.769531 L 4.574219 -5.851562 C 4.382812 -5.898438 4.011719 -5.792969 3.921875 -5.550781 Z M 5.390625 -6.480469 C 5.714844 -6.4375 5.960938 -6.597656 5.957031 -6.921875 C 5.953125 -7.125 5.75 -7.613281 5.601562 -7.863281 C 5.441406 -8.109375 5.234375 -8.308594 4.996094 -8.304688 L 4.804688 -8.300781 C 4.707031 -8.25 4.53125 -8.058594 4.535156 -8.007812 C 4.5 -7.925781 4.488281 -7.839844 4.476562 -7.757812 C 4.445312 -7.613281 4.460938 -7.421875 4.546875 -7.265625 C 4.671875 -6.957031 5.101562 -6.496094 5.390625 -6.480469 Z M 5.390625 -6.480469 "/></g></g></g><g clip-path="url(#cb6fdb8c04)"><g clip-path="url(#e2bd9c4cd7)"><g clip-path="url(#669de98949)"><path fill="#ffc93c" d="M 55.714844 7.75 C 55.703125 7.75 55.6875 7.746094 55.679688 7.742188 C 55.585938 7.503906 55.441406 7.332031 55.199219 7.316406 C 54.59375 7.285156 54.289062 8.386719 54.214844 8.828125 C 54.164062 9.109375 54.15625 9.394531 54.1875 9.675781 C 54.082031 9.503906 53.949219 9.34375 53.832031 9.222656 C 53.441406 8.800781 52.867188 8.453125 52.289062 8.742188 C 52.136719 8.820312 52.128906 9.007812 52.191406 9.140625 C 52.335938 9.433594 52.519531 9.707031 52.742188 9.941406 C 52.695312 10.0625 52.726562 10.199219 52.875 10.265625 C 53.355469 10.488281 53.675781 10.917969 54.09375 11.210938 C 54.457031 11.464844 55.042969 11.683594 55.332031 11.191406 C 55.589844 10.734375 55.726562 10.097656 55.8125 9.582031 C 55.820312 9.558594 55.820312 9.53125 55.828125 9.511719 C 55.863281 9.417969 55.898438 9.324219 55.933594 9.226562 C 56.054688 8.8125 56.328125 7.929688 55.714844 7.75 Z M 55.183594 9.3125 C 55.164062 9.433594 55.136719 9.554688 55.101562 9.675781 C 55.082031 9.707031 55.070312 9.730469 55.050781 9.761719 C 55.0625 9.699219 55.078125 9.640625 55.089844 9.582031 C 55.121094 9.453125 55.15625 9.328125 55.195312 9.203125 C 55.199219 9.238281 55.195312 9.277344 55.183594 9.3125 Z M 55.183594 9.3125 " fill-opacity="1" fill-rule="nonzero"/></g></g></g></svg>