<svg xmlns="http://www.w3.org/2000/svg" xmlns:xlink="http://www.w3.org/1999/xlink" width="80" zoomAndPan="magnify" viewBox="0 0 60 30.000001" height="40" preserveAspectRatio="xMidYMid meet" version="1.0"><defs><g/><clipPath id="7f6242c50e"><path d="M 5.105469 11 L 13 11 L 13 18.820312 L 5.105469 18.820312 Z M 5.105469 11 " clip-rule="nonzero"/></clipPath><clipPath id="d946c62e8f"><path d="M 6 10.109375 L 12 10.109375 L 12 14 L 6 14 Z M 6 10.109375 " clip-rule="nonzero"/></clipPath><clipPath id="2d8b88dd9c"><path d="M 5.105469 11 L 7 11 L 7 15 L 5.105469 15 Z M 5.105469 11 " clip-rule="nonzero"/></clipPath><clipPath id="a978532f36"><path d="M 12 11 L 13.089844 11 L 13.089844 15 L 12 15 Z M 12 11 " clip-rule="nonzero"/></clipPath></defs><g clip-path="url(#7f6242c50e)"><path fill="#ffffff" d="M 12.164062 14.992188 L 10.191406 14.429688 L 10.191406 12.65625 C 10.191406 12.058594 9.703125 11.570312 9.101562 11.570312 C 8.5 11.570312 8.011719 12.058594 8.011719 12.65625 L 8.011719 15.78125 L 7.695312 15.464844 C 7.269531 15.039062 6.578125 15.039062 6.152344 15.464844 C 5.730469 15.886719 5.730469 16.574219 6.152344 17 L 7.96875 18.808594 L 12.136719 18.808594 L 12.71875 15.898438 C 12.796875 15.507812 12.546875 15.101562 12.164062 14.992188 Z M 11.539062 18.085938 L 8.269531 18.085938 L 6.667969 16.488281 C 6.527344 16.347656 6.527344 16.117188 6.667969 15.976562 C 6.808594 15.835938 7.039062 15.835938 7.179688 15.976562 L 8.738281 17.527344 L 8.738281 12.65625 C 8.738281 12.457031 8.902344 12.292969 9.101562 12.292969 C 9.304688 12.292969 9.464844 12.457031 9.464844 12.65625 L 9.464844 14.976562 L 12.019531 15.703125 Z M 11.539062 18.085938 " fill-opacity="1" fill-rule="nonzero"/></g><g clip-path="url(#d946c62e8f)"><path fill="#ffffff" d="M 6.753906 13.625 C 6.628906 13.328125 6.5625 13 6.5625 12.65625 C 6.5625 11.257812 7.699219 10.125 9.101562 10.125 C 10.507812 10.125 11.644531 11.257812 11.644531 12.65625 C 11.644531 13 11.574219 13.328125 11.449219 13.625 L 10.78125 13.347656 C 10.867188 13.136719 10.917969 12.902344 10.917969 12.65625 C 10.917969 11.65625 10.105469 10.847656 9.101562 10.847656 C 8.101562 10.847656 7.289062 11.65625 7.289062 12.65625 C 7.289062 12.902344 7.335938 13.136719 7.425781 13.347656 Z M 6.753906 13.625 " fill-opacity="1" fill-rule="nonzero"/></g><g clip-path="url(#2d8b88dd9c)"><path fill="#ffffff" d="M 6.085938 11.410156 C 5.925781 11.792969 5.835938 12.214844 5.835938 12.65625 C 5.835938 13.097656 5.925781 13.519531 6.085938 13.902344 L 5.414062 14.179688 C 5.21875 13.710938 5.109375 13.195312 5.109375 12.65625 C 5.109375 12.117188 5.21875 11.601562 5.414062 11.132812 Z M 6.085938 11.410156 " fill-opacity="1" fill-rule="nonzero"/></g><g clip-path="url(#a978532f36)"><path fill="#ffffff" d="M 12.792969 14.179688 C 12.988281 13.710938 13.097656 13.195312 13.097656 12.65625 C 13.097656 12.117188 12.988281 11.601562 12.792969 11.132812 L 12.121094 11.410156 C 12.28125 11.792969 12.371094 12.214844 12.371094 12.65625 C 12.371094 13.097656 12.28125 13.519531 12.121094 13.902344 Z M 12.792969 14.179688 " fill-opacity="1" fill-rule="nonzero"/></g><g fill="#ffffff" fill-opacity="1"><g transform="translate(15.906594, 17.513434)"><g><path d="M 8.390625 -6.328125 L 5.5625 -6.328125 L 5.5625 -5.671875 L 8.421875 -5.671875 L 8.421875 -2.140625 L 1.546875 -2.140625 L 1.546875 -5.671875 L 4.0625 -5.671875 L 4.0625 -8.03125 L 5.5625 -8.03125 L 5.5625 -7.4375 L 8.390625 -7.4375 Z M 3.046875 -3.390625 L 6.765625 -3.390625 L 6.765625 -4.484375 L 3.046875 -4.484375 Z M 6.078125 -1.828125 C 6.742188 -1.359375 7.085938 -0.8125 7.109375 -0.1875 L 5.859375 0.375 L 5.203125 -1.59375 Z M 0.296875 0.125 L 1.46875 -1.78125 L 2.703125 -1.328125 C 2.546875 -0.671875 2.101562 -0.0703125 1.375 0.46875 Z M 8.25 -1.78125 C 9.082031 -1.414062 9.582031 -0.925781 9.75 -0.3125 L 8.5 0.421875 L 7.34375 -1.421875 Z M 4.09375 -1.71875 C 4.613281 -1.300781 4.875 -0.816406 4.875 -0.265625 C 4.875 -0.203125 4.867188 -0.132812 4.859375 -0.0625 L 3.53125 0.5 L 3.1875 -1.46875 Z M 4.09375 -1.71875 "/></g></g></g><g fill="#ffffff" fill-opacity="1"><g transform="translate(26.620449, 17.513434)"><g><path d="M 9.40625 -3.109375 L 5.703125 -3.109375 L 5.703125 -1.078125 L 7.265625 -1.078125 L 7.265625 -2.578125 L 8.8125 -2.578125 L 8.8125 0.1875 L 1.203125 0.1875 L 1.203125 -2.59375 L 2.703125 -2.59375 L 2.703125 -1.078125 L 4.21875 -1.078125 L 4.21875 -3.109375 L 0.640625 -3.109375 L 0.640625 -4.359375 L 4.21875 -4.359375 L 4.21875 -5.375 L 1.171875 -5.375 L 1.171875 -6.640625 L 4.21875 -6.640625 L 4.21875 -7.71875 L 5.703125 -7.71875 L 5.703125 -6.640625 L 8.734375 -6.640625 L 8.734375 -5.375 L 5.703125 -5.375 L 5.703125 -4.359375 L 9.40625 -4.359375 Z M 9.40625 -3.109375 "/></g></g></g><g fill="#ffffff" fill-opacity="1"><g transform="translate(37.339323, 17.513434)"><g><path d="M 0.671875 -6.59375 L 1.75 -6.59375 C 1.757812 -6.695312 1.765625 -6.804688 1.765625 -6.921875 C 1.765625 -7.191406 1.753906 -7.46875 1.734375 -7.75 L 3.03125 -7.71875 C 3.0625 -7.332031 3.085938 -6.957031 3.109375 -6.59375 L 5.21875 -6.59375 C 5.21875 -6.59375 5.21875 -6.460938 5.21875 -6.203125 C 5.226562 -5.953125 5.234375 -5.765625 5.234375 -5.640625 C 5.234375 -5.140625 5.21875 -4.226562 5.1875 -2.90625 C 5.164062 -1.582031 5.070312 -0.75 4.90625 -0.40625 C 4.757812 -0.03125 4.570312 0.15625 4.34375 0.15625 C 4.125 0.164062 3.976562 0.171875 3.90625 0.171875 C 3.695312 0.171875 3.566406 0.160156 3.515625 0.140625 C 3.441406 0.0976562 3.328125 -0.0820312 3.171875 -0.40625 C 3.023438 -0.738281 2.953125 -0.90625 2.953125 -0.90625 C 2.953125 -0.90625 3.050781 -0.914062 3.25 -0.9375 C 3.445312 -0.96875 3.570312 -0.988281 3.625 -1 C 3.675781 -1.019531 3.71875 -1.0625 3.75 -1.125 C 3.789062 -1.226562 3.8125 -1.6875 3.8125 -2.5 C 3.8125 -2.75 3.804688 -3.285156 3.796875 -4.109375 C 3.785156 -4.929688 3.78125 -5.34375 3.78125 -5.34375 L 3.09375 -5.34375 C 3 -3.1875 2.425781 -1.332031 1.375 0.21875 L 0.578125 -0.484375 C 1.179688 -2.023438 1.554688 -3.644531 1.703125 -5.34375 L 0.671875 -5.34375 Z M 9.46875 -6.96875 L 9.46875 -0.203125 L 5.84375 -0.203125 L 5.84375 -6.96875 Z M 7.15625 -1.21875 L 8.140625 -1.21875 L 8.140625 -5.828125 L 7.15625 -5.828125 Z M 7.15625 -1.21875 "/></g></g></g><g fill="#ffffff" fill-opacity="1"><g transform="translate(48.053179, 17.513434)"><g><path d="M 2.921875 -7.6875 C 4.015625 -7.582031 4.875 -7.035156 5.5 -6.046875 C 7.21875 -3.191406 8.585938 -1.519531 9.609375 -1.03125 L 8.921875 0.09375 C 7.765625 -0.28125 6.445312 -1.566406 4.96875 -3.765625 C 4.351562 -2.097656 3.015625 -0.789062 0.953125 0.15625 L 0.4375 -0.875 C 2.175781 -2.007812 3.34375 -3.492188 3.9375 -5.328125 C 3.53125 -5.816406 3 -6.175781 2.34375 -6.40625 Z M 2.921875 -7.6875 "/></g></g></g></svg>