<svg xmlns="http://www.w3.org/2000/svg" xmlns:xlink="http://www.w3.org/1999/xlink" width="50" zoomAndPan="magnify" viewBox="0 0 37.5 74.999998" height="100" preserveAspectRatio="xMidYMid meet" version="1.0"><defs><clipPath id="6a23ce48a4"><path d="M 1 43 L 22 43 L 22 64 L 1 64 Z M 1 43 " clip-rule="nonzero"/></clipPath><clipPath id="dca8de8d56"><path d="M 0 46.707031 L 4.339844 42.367188 L 22.558594 60.585938 L 18.21875 64.925781 Z M 0 46.707031 " clip-rule="nonzero"/></clipPath><clipPath id="ba9aca0615"><path d="M 2.171875 44.539062 C 2.746094 43.960938 3.527344 43.636719 4.339844 43.636719 C 5.152344 43.636719 5.933594 43.960938 6.507812 44.539062 L 20.390625 58.417969 C 20.964844 58.992188 21.289062 59.773438 21.289062 60.585938 C 21.289062 61.398438 20.964844 62.179688 20.390625 62.753906 C 19.8125 63.332031 19.03125 63.652344 18.21875 63.652344 C 17.40625 63.652344 16.625 63.332031 16.050781 62.753906 L 2.171875 48.875 C 1.59375 48.300781 1.273438 47.519531 1.273438 46.707031 C 1.273438 45.894531 1.59375 45.113281 2.171875 44.539062 " clip-rule="nonzero"/></clipPath><clipPath id="47100ab0db"><path d="M 16 43 L 37 43 L 37 64 L 16 64 Z M 16 43 " clip-rule="nonzero"/></clipPath><clipPath id="35445d5dd8"><path d="M 33.15625 42.371094 L 37.496094 46.710938 L 19.277344 64.929688 L 14.941406 60.589844 Z M 33.15625 42.371094 " clip-rule="nonzero"/></clipPath><clipPath id="a0868c4aed"><path d="M 35.328125 44.542969 C 35.902344 45.117188 36.226562 45.898438 36.226562 46.710938 C 36.226562 47.523438 35.902344 48.304688 35.328125 48.878906 L 21.449219 62.761719 C 20.871094 63.335938 20.09375 63.660156 19.277344 63.660156 C 18.464844 63.660156 17.683594 63.335938 17.109375 62.761719 C 16.535156 62.183594 16.210938 61.40625 16.210938 60.589844 C 16.210938 59.777344 16.535156 58.996094 17.109375 58.421875 L 30.988281 44.542969 C 31.5625 43.964844 32.34375 43.644531 33.15625 43.644531 C 33.972656 43.644531 34.753906 43.964844 35.328125 44.542969 " clip-rule="nonzero"/></clipPath><clipPath id="29a26da81f"><path d="M 1 19 L 22 19 L 22 40 L 1 40 Z M 1 19 " clip-rule="nonzero"/></clipPath><clipPath id="937280ee82"><path d="M 0 22.40625 L 4.339844 18.066406 L 22.558594 36.285156 L 18.21875 40.625 Z M 0 22.40625 " clip-rule="nonzero"/></clipPath><clipPath id="4984654866"><path d="M 2.171875 20.238281 C 2.746094 19.660156 3.527344 19.339844 4.339844 19.339844 C 5.152344 19.339844 5.933594 19.660156 6.507812 20.238281 L 20.390625 34.117188 C 20.964844 34.691406 21.289062 35.472656 21.289062 36.285156 C 21.289062 37.101562 20.964844 37.878906 20.390625 38.457031 C 19.8125 39.03125 19.03125 39.355469 18.21875 39.355469 C 17.40625 39.355469 16.625 39.03125 16.050781 38.457031 L 2.171875 24.574219 C 1.59375 24 1.273438 23.21875 1.273438 22.40625 C 1.273438 21.59375 1.59375 20.8125 2.171875 20.238281 " clip-rule="nonzero"/></clipPath><clipPath id="d021a214f1"><path d="M 16 19 L 37 19 L 37 40 L 16 40 Z M 16 19 " clip-rule="nonzero"/></clipPath><clipPath id="8d7e7124f1"><path d="M 33.15625 18.074219 L 37.496094 22.410156 L 19.277344 40.628906 L 14.941406 36.289062 Z M 33.15625 18.074219 " clip-rule="nonzero"/></clipPath><clipPath id="6ea4fa8d3d"><path d="M 35.328125 20.242188 C 35.902344 20.816406 36.226562 21.597656 36.226562 22.410156 C 36.226562 23.226562 35.902344 24.003906 35.328125 24.582031 L 21.449219 38.460938 C 20.871094 39.035156 20.09375 39.359375 19.277344 39.359375 C 18.464844 39.359375 17.683594 39.035156 17.109375 38.460938 C 16.535156 37.886719 16.210938 37.105469 16.210938 36.289062 C 16.210938 35.476562 16.535156 34.695312 17.109375 34.121094 L 30.988281 20.242188 C 31.5625 19.667969 32.34375 19.34375 33.15625 19.34375 C 33.972656 19.34375 34.753906 19.667969 35.328125 20.242188 " clip-rule="nonzero"/></clipPath></defs><g clip-path="url(#6a23ce48a4)"><g clip-path="url(#dca8de8d56)"><g clip-path="url(#ba9aca0615)"><path fill="#ffffff" d="M 0 46.707031 L 4.339844 42.367188 L 22.558594 60.585938 L 18.21875 64.925781 Z M 0 46.707031 " fill-opacity="1" fill-rule="nonzero"/></g></g></g><g clip-path="url(#47100ab0db)"><g clip-path="url(#35445d5dd8)"><g clip-path="url(#a0868c4aed)"><path fill="#ffffff" d="M 33.15625 42.371094 L 37.496094 46.710938 L 19.277344 64.929688 L 14.941406 60.589844 Z M 33.15625 42.371094 " fill-opacity="1" fill-rule="nonzero"/></g></g></g><g clip-path="url(#29a26da81f)"><g clip-path="url(#937280ee82)"><g clip-path="url(#4984654866)"><path fill="#ffffff" d="M 0 22.40625 L 4.339844 18.066406 L 22.558594 36.285156 L 18.21875 40.625 Z M 0 22.40625 " fill-opacity="1" fill-rule="nonzero"/></g></g></g><g clip-path="url(#d021a214f1)"><g clip-path="url(#8d7e7124f1)"><g clip-path="url(#6ea4fa8d3d)"><path fill="#ffffff" d="M 33.15625 18.074219 L 37.496094 22.410156 L 19.277344 40.628906 L 14.941406 36.289062 Z M 33.15625 18.074219 " fill-opacity="1" fill-rule="nonzero"/></g></g></g></svg>