<svg xmlns="http://www.w3.org/2000/svg" xmlns:xlink="http://www.w3.org/1999/xlink" width="1366" zoomAndPan="magnify" viewBox="0 0 1024.5 576" height="768" preserveAspectRatio="xMidYMid meet" version="1.0"><defs><clipPath id="80fa66581d"><path d="M 0 23.679688 L 1024 23.679688 L 1024 252.367188 L 0 252.367188 Z M 0 23.679688 " clip-rule="nonzero"/></clipPath><clipPath id="e42580ba40"><path d="M -62.722656 23.679688 L 1300.027344 23.679688 C 1314.941406 23.679688 1327.027344 35.765625 1327.027344 50.679688 L 1327.027344 225.367188 C 1327.027344 240.277344 1314.941406 252.367188 1300.027344 252.367188 L -62.722656 252.367188 C -77.636719 252.367188 -89.722656 240.277344 -89.722656 225.367188 L -89.722656 50.679688 C -89.722656 35.765625 -77.636719 23.679688 -62.722656 23.679688 " clip-rule="nonzero"/></clipPath><clipPath id="b0821d2454"><path d="M 0 178.300781 L 1024 178.300781 L 1024 575.859375 L 0 575.859375 Z M 0 178.300781 " clip-rule="nonzero"/></clipPath><clipPath id="78857a4f44"><path d="M -177.238281 178.300781 L 1185.511719 178.300781 C 1200.425781 178.300781 1212.511719 190.386719 1212.511719 205.300781 L 1212.511719 549.140625 C 1212.511719 564.050781 1200.425781 576.140625 1185.511719 576.140625 L -177.238281 576.140625 C -192.152344 576.140625 -204.238281 564.050781 -204.238281 549.140625 L -204.238281 205.300781 C -204.238281 190.386719 -192.152344 178.300781 -177.238281 178.300781 " clip-rule="nonzero"/></clipPath><clipPath id="ea6b4be181"><path d="M 0 100.78125 L 1024 100.78125 L 1024 403.386719 L 0 403.386719 Z M 0 100.78125 " clip-rule="nonzero"/></clipPath><clipPath id="7960d1943f"><path d="M 504.136719 100.78125 C 192.066406 100.78125 -60.914062 168.523438 -60.914062 252.082031 C -60.914062 335.644531 192.066406 403.386719 504.136719 403.386719 C 816.207031 403.386719 1069.1875 335.644531 1069.1875 252.082031 C 1069.1875 168.523438 816.207031 100.78125 504.136719 100.78125 " clip-rule="nonzero"/></clipPath><clipPath id="1ebb580488"><path d="M 0 0.140625 L 1024 0.140625 L 1024 240.367188 L 0 240.367188 Z M 0 0.140625 " clip-rule="nonzero"/></clipPath><clipPath id="d38382e6aa"><path d="M -74.722656 -12.660156 L 1288.027344 -12.660156 C 1302.941406 -12.660156 1315.027344 -0.570312 1315.027344 14.339844 L 1315.027344 213.367188 C 1315.027344 228.277344 1302.941406 240.367188 1288.027344 240.367188 L -74.722656 240.367188 C -89.636719 240.367188 -101.722656 228.277344 -101.722656 213.367188 L -101.722656 14.339844 C -101.722656 -0.570312 -89.636719 -12.660156 -74.722656 -12.660156 " clip-rule="nonzero"/></clipPath><clipPath id="06ffa4a902"><path d="M 0 68 L 154 68 L 154 247 L 0 247 Z M 0 68 " clip-rule="nonzero"/></clipPath><clipPath id="e979864564"><path d="M -60.914062 114.496094 L 97.0625 23.617188 L 185.324219 177.039062 L 27.351562 267.917969 Z M -60.914062 114.496094 " clip-rule="nonzero"/></clipPath><clipPath id="95f0129083"><path d="M -60.914062 114.496094 L 97.0625 23.617188 L 185.324219 177.039062 L 27.351562 267.917969 Z M -60.914062 114.496094 " clip-rule="nonzero"/></clipPath><clipPath id="6ef5f08d02"><path d="M 431 244 L 529 244 L 529 344 L 431 344 Z M 431 244 " clip-rule="nonzero"/></clipPath><clipPath id="2927f8b7e3"><path d="M 416.230469 263.417969 L 509.003906 224.773438 L 546.496094 314.78125 L 453.722656 353.421875 Z M 416.230469 263.417969 " clip-rule="nonzero"/></clipPath><clipPath id="f2aec92039"><path d="M 416.230469 263.417969 L 509.003906 224.773438 L 546.496094 314.78125 L 453.722656 353.421875 Z M 416.230469 263.417969 " clip-rule="nonzero"/></clipPath><clipPath id="13d90eb849"><path d="M 746 0.140625 L 1024 0.140625 L 1024 296 L 746 296 Z M 746 0.140625 " clip-rule="nonzero"/></clipPath><clipPath id="a6355e03b6"><path d="M 736.441406 -37.144531 L 1089.101562 -57.511719 L 1108.863281 284.667969 L 756.203125 305.035156 Z M 736.441406 -37.144531 " clip-rule="nonzero"/></clipPath><clipPath id="494918e3a0"><path d="M 736.441406 -37.144531 L 1089.101562 -57.511719 L 1108.863281 284.667969 L 756.203125 305.035156 Z M 736.441406 -37.144531 " clip-rule="nonzero"/></clipPath><clipPath id="6cb5bab48d"><path d="M 327 0.140625 L 483 0.140625 L 483 133 L 327 133 Z M 327 0.140625 " clip-rule="nonzero"/></clipPath><clipPath id="f67cdb7df4"><path d="M 306.859375 -4.910156 L 461.976562 -56.597656 L 512.242188 94.25 L 357.125 145.9375 Z M 306.859375 -4.910156 " clip-rule="nonzero"/></clipPath><clipPath id="00d18fee06"><path d="M 306.859375 -4.910156 L 461.976562 -56.597656 L 512.242188 94.25 L 357.125 145.9375 Z M 306.859375 -4.910156 " clip-rule="nonzero"/></clipPath></defs><g clip-path="url(#80fa66581d)"><g clip-path="url(#e42580ba40)"><path fill="#0081c9" d="M -89.722656 23.679688 L 1327.027344 23.679688 L 1327.027344 252.367188 L -89.722656 252.367188 Z M -89.722656 23.679688 " fill-opacity="1" fill-rule="nonzero"/></g></g><g clip-path="url(#b0821d2454)"><g clip-path="url(#78857a4f44)"><path fill="#ffffff" d="M -204.238281 178.300781 L 1212.511719 178.300781 L 1212.511719 576.140625 L -204.238281 576.140625 Z M -204.238281 178.300781 " fill-opacity="1" fill-rule="nonzero"/></g></g><g clip-path="url(#ea6b4be181)"><g clip-path="url(#7960d1943f)"><path fill="#0081c9" d="M -60.914062 100.78125 L 1069.1875 100.78125 L 1069.1875 403.386719 L -60.914062 403.386719 Z M -60.914062 100.78125 " fill-opacity="1" fill-rule="nonzero"/></g></g><g clip-path="url(#1ebb580488)"><g clip-path="url(#d38382e6aa)"><path fill="#0081c9" d="M -101.722656 -12.660156 L 1315.027344 -12.660156 L 1315.027344 240.367188 L -101.722656 240.367188 Z M -101.722656 -12.660156 " fill-opacity="1" fill-rule="nonzero"/></g></g><g clip-path="url(#06ffa4a902)"><g clip-path="url(#e979864564)"><g clip-path="url(#95f0129083)"><path fill="#1a8ecf" d="M 148.121094 195.625 C 146.261719 196.695312 144.082031 197.1875 141.832031 196.964844 L 88.890625 191.617188 L 66.898438 240.074219 C 65.023438 244.199219 60.738281 246.660156 56.230469 246.164062 C 51.734375 245.6875 48.046875 242.371094 47.089844 237.957031 L 35.085938 184.765625 L -17.117188 179.929688 C -21.609375 179.414062 -25.277344 176.074219 -26.21875 171.648438 C -27.148438 167.222656 -25.140625 162.695312 -21.242188 160.417969 L 24.707031 133.890625 L 14.015625 81.4375 C 13.101562 76.996094 15.136719 72.488281 19.058594 70.230469 C 22.976562 67.976562 27.898438 68.488281 31.28125 71.503906 L 71.007812 107.253906 L 117.269531 80.734375 C 121.210938 78.5 126.140625 79.042969 129.484375 82.070312 C 132.84375 85.109375 133.886719 89.960938 132.066406 94.105469 L 110.007812 141.664062 L 149.957031 178.777344 C 153.300781 181.820312 154.300781 186.683594 152.460938 190.804688 C 151.535156 192.894531 149.996094 194.546875 148.121094 195.625 Z M 148.121094 195.625 " fill-opacity="1" fill-rule="nonzero"/></g></g></g><g clip-path="url(#6ef5f08d02)"><g clip-path="url(#2927f8b7e3)"><g clip-path="url(#f2aec92039)"><path fill="#1a8ecf" d="M 524.847656 322.339844 C 523.753906 322.796875 522.527344 322.914062 521.3125 322.636719 L 492.734375 316.019531 L 477.304688 340.964844 C 475.988281 343.085938 473.472656 344.136719 471.042969 343.546875 C 468.617188 342.976562 466.835938 340.90625 466.621094 338.425781 L 463.792969 308.519531 L 435.585938 302.234375 C 433.164062 301.640625 431.394531 299.558594 431.1875 297.070312 C 430.992188 294.589844 432.40625 292.257812 434.699219 291.28125 L 461.691406 279.992188 L 459.53125 250.578125 C 459.34375 248.089844 460.773438 245.765625 463.074219 244.808594 C 465.375 243.847656 468.03125 244.472656 469.667969 246.355469 L 488.882812 268.667969 L 516.042969 257.398438 C 518.359375 256.457031 521.015625 257.09375 522.628906 258.984375 C 524.253906 260.878906 524.484375 263.601562 523.195312 265.742188 L 507.792969 290.191406 L 527.03125 313.261719 C 528.648438 315.15625 528.851562 317.886719 527.554688 320.007812 C 526.902344 321.085938 525.945312 321.882812 524.847656 322.339844 Z M 524.847656 322.339844 " fill-opacity="1" fill-rule="nonzero"/></g></g></g><g clip-path="url(#13d90eb849)"><g clip-path="url(#a6355e03b6)"><g clip-path="url(#494918e3a0)"><path fill="#1a8ecf" d="M 1028.261719 284.589844 C 1024.109375 284.832031 1019.902344 283.792969 1016.195312 281.460938 L 929.089844 226.289062 L 848.914062 291.121094 C 842.082031 296.632812 832.519531 297.183594 825.136719 292.410156 C 817.757812 287.6875 814.25 278.75 816.421875 270.273438 L 841.800781 167.765625 L 755.535156 114.125 C 748.191406 109.339844 744.734375 100.375 746.945312 91.890625 C 749.179688 83.421875 756.585938 77.328125 765.324219 76.761719 L 867.976562 70.679688 L 894.992188 -29.414062 C 897.265625 -37.894531 904.703125 -43.9375 913.453125 -44.441406 C 922.203125 -44.949219 930.289062 -39.792969 933.535156 -31.640625 L 971.339844 64.710938 L 1074.535156 58.90625 C 1083.308594 58.460938 1091.378906 63.671875 1094.539062 71.816406 C 1097.726562 79.988281 1095.324219 89.292969 1088.570312 94.890625 L 1009.050781 158.105469 L 1046.0625 257.011719 C 1049.21875 265.179688 1046.730469 274.464844 1039.964844 280.003906 C 1036.546875 282.824219 1032.445312 284.347656 1028.261719 284.589844 Z M 1028.261719 284.589844 " fill-opacity="1" fill-rule="nonzero"/></g></g></g><g clip-path="url(#6cb5bab48d)"><g clip-path="url(#f67cdb7df4)"><g clip-path="url(#00d18fee06)"><path fill="#1a8ecf" d="M 476.214844 103.945312 C 474.386719 104.554688 472.382812 104.597656 470.445312 104 L 424.84375 89.808594 L 396.867188 128.515625 C 394.484375 131.808594 390.277344 133.210938 386.398438 131.964844 C 382.53125 130.742188 379.878906 127.160156 379.824219 123.105469 L 378.75 74.136719 L 333.710938 60.527344 C 329.847656 59.269531 327.21875 55.671875 327.179688 51.605469 C 327.152344 47.546875 329.722656 43.921875 333.558594 42.613281 L 378.691406 27.5 L 378.640625 -20.585938 C 378.632812 -24.65625 381.222656 -28.261719 385.070312 -29.542969 C 388.921875 -30.824219 393.15625 -29.492188 395.59375 -26.234375 L 424.152344 12.351562 L 469.5625 -2.703125 C 473.429688 -3.964844 477.664062 -2.605469 480.066406 0.660156 C 482.476562 3.9375 482.53125 8.394531 480.191406 11.714844 L 452.316406 49.621094 L 480.832031 89.445312 C 483.226562 92.722656 483.242188 97.179688 480.890625 100.480469 C 479.703125 102.152344 478.054688 103.332031 476.214844 103.945312 Z M 476.214844 103.945312 " fill-opacity="1" fill-rule="nonzero"/></g></g></g></svg>