<svg xmlns="http://www.w3.org/2000/svg" xmlns:xlink="http://www.w3.org/1999/xlink" width="700" zoomAndPan="magnify" viewBox="0 0 525 899.99999" height="1200" preserveAspectRatio="xMidYMid meet" version="1.0"><defs><clipPath id="90c8d2fdec"><path d="M 0 199.949219 L 525 199.949219 L 525 317.136719 L 0 317.136719 Z M 0 199.949219 " clip-rule="nonzero"/></clipPath><clipPath id="c6006f929f"><path d="M 11.820312 199.949219 L 710.828125 199.949219 C 718.285156 199.949219 724.328125 205.992188 724.328125 213.449219 L 724.328125 303.636719 C 724.328125 311.09375 718.285156 317.136719 710.828125 317.136719 L 11.820312 317.136719 C 4.363281 317.136719 -1.679688 311.09375 -1.679688 303.636719 L -1.679688 213.449219 C -1.679688 205.992188 4.363281 199.949219 11.820312 199.949219 " clip-rule="nonzero"/></clipPath><clipPath id="3e2504c754"><path d="M 0 199.949219 L 525 199.949219 L 525 584.339844 L 0 584.339844 Z M 0 199.949219 " clip-rule="nonzero"/></clipPath><clipPath id="0b93d1f6c6"><path d="M 257.59375 199.949219 C 53.382812 199.949219 -112.167969 285.996094 -112.167969 392.144531 C -112.167969 498.289062 53.382812 584.339844 257.59375 584.339844 C 461.808594 584.339844 627.359375 498.289062 627.359375 392.144531 C 627.359375 285.996094 461.808594 199.949219 257.59375 199.949219 " clip-rule="nonzero"/></clipPath><clipPath id="303a3e223b"><path d="M 0 0 L 525 0 L 525 310.988281 L 0 310.988281 Z M 0 0 " clip-rule="nonzero"/></clipPath><clipPath id="7a1c266001"><path d="M 5.671875 -39.089844 L 704.679688 -39.089844 C 712.136719 -39.089844 718.179688 -33.046875 718.179688 -25.589844 L 718.179688 297.488281 C 718.179688 304.945312 712.136719 310.988281 704.679688 310.988281 L 5.671875 310.988281 C -1.785156 310.988281 -7.828125 304.945312 -7.828125 297.488281 L -7.828125 -25.589844 C -7.828125 -33.046875 -1.785156 -39.089844 5.671875 -39.089844 " clip-rule="nonzero"/></clipPath><clipPath id="b56b58b0a0"><path d="M 0 179 L 116 179 L 116 302 L 0 302 Z M 0 179 " clip-rule="nonzero"/></clipPath><clipPath id="80b34fba1d"><path d="M -32.722656 211.015625 L 76.496094 148.183594 L 137.457031 254.152344 L 28.238281 316.984375 Z M -32.722656 211.015625 " clip-rule="nonzero"/></clipPath><clipPath id="ff5502bb71"><path d="M -32.722656 211.015625 L 76.496094 148.183594 L 137.457031 254.152344 L 28.238281 316.984375 Z M -32.722656 211.015625 " clip-rule="nonzero"/></clipPath><clipPath id="6114ee60ad"><path d="M 396 494 L 447 494 L 447 547 L 396 547 Z M 396 494 " clip-rule="nonzero"/></clipPath><clipPath id="da5b4c827c"><path d="M 388.335938 504.664062 L 436.105469 484.765625 L 455.425781 531.152344 L 407.65625 551.050781 Z M 388.335938 504.664062 " clip-rule="nonzero"/></clipPath><clipPath id="2fda2287cc"><path d="M 388.335938 504.664062 L 436.105469 484.765625 L 455.425781 531.152344 L 407.65625 551.050781 Z M 388.335938 504.664062 " clip-rule="nonzero"/></clipPath><clipPath id="85d0bffaad"><path d="M 477 113 L 525 113 L 525 288 L 477 288 Z M 477 113 " clip-rule="nonzero"/></clipPath><clipPath id="f96268fe5c"><path d="M 472.5 117.546875 L 652.949219 107.125 L 663.066406 282.332031 L 482.617188 292.753906 Z M 472.5 117.546875 " clip-rule="nonzero"/></clipPath><clipPath id="96ba46bee4"><path d="M 472.5 117.546875 L 652.949219 107.125 L 663.066406 282.332031 L 482.617188 292.753906 Z M 472.5 117.546875 " clip-rule="nonzero"/></clipPath><clipPath id="68ae1c6112"><path d="M 0 386 L 51 386 L 51 470 L 0 470 Z M 0 386 " clip-rule="nonzero"/></clipPath><clipPath id="6f94beaeb9"><path d="M -39.539062 399.476562 L 40.152344 372.921875 L 65.757812 449.765625 L -13.933594 476.320312 Z M -39.539062 399.476562 " clip-rule="nonzero"/></clipPath><clipPath id="1c30817c7d"><path d="M -39.539062 399.476562 L 40.152344 372.921875 L 65.757812 449.765625 L -13.933594 476.320312 Z M -39.539062 399.476562 " clip-rule="nonzero"/></clipPath><clipPath id="89d1522eba"><path d="M 339 0 L 519 0 L 519 103 L 339 103 Z M 339 0 " clip-rule="nonzero"/></clipPath><clipPath id="a02c233673"><path d="M 334.226562 -68.121094 L 514.675781 -78.542969 L 524.792969 96.664062 L 344.34375 107.085938 Z M 334.226562 -68.121094 " clip-rule="nonzero"/></clipPath><clipPath id="526a58fadf"><path d="M 334.226562 -68.121094 L 514.675781 -78.542969 L 524.792969 96.664062 L 344.34375 107.085938 Z M 334.226562 -68.121094 " clip-rule="nonzero"/></clipPath><clipPath id="4e512aee0f"><path d="M 53 0 L 154 0 L 154 49 L 53 49 Z M 53 0 " clip-rule="nonzero"/></clipPath><clipPath id="c5c7219b1f"><path d="M 58.09375 -57.828125 L 158.492188 -44.726562 L 145.777344 52.695312 L 45.378906 39.59375 Z M 58.09375 -57.828125 " clip-rule="nonzero"/></clipPath><clipPath id="a17174b6b2"><path d="M 58.09375 -57.828125 L 158.492188 -44.726562 L 145.777344 52.695312 L 45.378906 39.59375 Z M 58.09375 -57.828125 " clip-rule="nonzero"/></clipPath><clipPath id="9f6009c446"><path d="M 194 199 L 458 199 L 458 463 L 194 463 Z M 194 199 " clip-rule="nonzero"/></clipPath><clipPath id="c000cbc053"><path d="M 124.71875 319.980469 L 314.578125 130.125 L 498.601562 314.148438 L 308.742188 504.007812 Z M 124.71875 319.980469 " clip-rule="nonzero"/></clipPath><clipPath id="eb6ea6df0a"><path d="M 124.71875 319.980469 L 314.578125 130.125 L 498.601562 314.148438 L 308.742188 504.007812 Z M 124.71875 319.980469 " clip-rule="nonzero"/></clipPath></defs><g clip-path="url(#90c8d2fdec)"><g clip-path="url(#c6006f929f)"><path fill="#0081c9" d="M -1.679688 199.949219 L 724.328125 199.949219 L 724.328125 317.136719 L -1.679688 317.136719 Z M -1.679688 199.949219 " fill-opacity="1" fill-rule="nonzero"/></g></g><g clip-path="url(#3e2504c754)"><g clip-path="url(#0b93d1f6c6)"><path fill="#0081c9" d="M -112.167969 199.949219 L 627.359375 199.949219 L 627.359375 584.339844 L -112.167969 584.339844 Z M -112.167969 199.949219 " fill-opacity="1" fill-rule="nonzero"/></g></g><g clip-path="url(#303a3e223b)"><g clip-path="url(#7a1c266001)"><path fill="#0081c9" d="M -7.828125 -39.089844 L 718.179688 -39.089844 L 718.179688 310.988281 L -7.828125 310.988281 Z M -7.828125 -39.089844 " fill-opacity="1" fill-rule="nonzero"/></g></g><g clip-path="url(#b56b58b0a0)"><g clip-path="url(#80b34fba1d)"><g clip-path="url(#ff5502bb71)"><path fill="#1a8ecf" d="M 111.738281 267.003906 C 110.453125 267.742188 108.945312 268.085938 107.390625 267.929688 L 70.796875 264.253906 L 55.582031 297.734375 C 54.285156 300.585938 51.324219 302.289062 48.207031 301.945312 C 45.097656 301.617188 42.550781 299.328125 41.890625 296.277344 L 33.609375 259.535156 L -2.46875 256.207031 C -5.574219 255.855469 -8.109375 253.546875 -8.757812 250.488281 C -9.398438 247.429688 -8.011719 244.304688 -5.316406 242.730469 L 26.449219 224.390625 L 19.078125 188.15625 C 18.449219 185.085938 19.855469 181.972656 22.566406 180.414062 C 25.273438 178.855469 28.675781 179.207031 31.015625 181.289062 L 58.460938 205.976562 L 90.445312 187.640625 C 93.171875 186.097656 96.578125 186.46875 98.886719 188.558594 C 101.207031 190.660156 101.929688 194.007812 100.667969 196.875 L 85.40625 229.734375 L 113.007812 255.363281 C 115.320312 257.464844 116.011719 260.824219 114.738281 263.671875 C 114.097656 265.117188 113.035156 266.257812 111.738281 267.003906 Z M 111.738281 267.003906 " fill-opacity="1" fill-rule="nonzero"/></g></g></g><g clip-path="url(#6114ee60ad)"><g clip-path="url(#da5b4c827c)"><g clip-path="url(#2fda2287cc)"><path fill="#1a8ecf" d="M 444.28125 535.046875 C 443.71875 535.28125 443.085938 535.339844 442.460938 535.195312 L 427.742188 531.78125 L 419.800781 544.636719 C 419.125 545.730469 417.828125 546.269531 416.574219 545.964844 C 415.324219 545.667969 414.40625 544.601562 414.296875 543.324219 L 412.835938 527.910156 L 398.308594 524.667969 C 397.0625 524.359375 396.148438 523.289062 396.042969 522.007812 C 395.941406 520.726562 396.667969 519.523438 397.851562 519.023438 L 411.746094 513.210938 L 410.628906 498.050781 C 410.53125 496.769531 411.269531 495.570312 412.453125 495.078125 C 413.640625 494.585938 415.007812 494.90625 415.851562 495.875 L 425.75 507.378906 L 439.734375 501.578125 C 440.925781 501.089844 442.296875 501.421875 443.128906 502.394531 C 443.964844 503.371094 444.082031 504.773438 443.421875 505.875 L 435.492188 518.472656 L 445.40625 530.367188 C 446.234375 531.34375 446.34375 532.75 445.675781 533.84375 C 445.339844 534.398438 444.847656 534.808594 444.28125 535.046875 Z M 444.28125 535.046875 " fill-opacity="1" fill-rule="nonzero"/></g></g></g><g clip-path="url(#85d0bffaad)"><g clip-path="url(#f96268fe5c)"><g clip-path="url(#96ba46bee4)"><path fill="#1a8ecf" d="M 621.824219 282.292969 C 619.699219 282.414062 617.546875 281.882812 615.652344 280.6875 L 571.078125 252.4375 L 530.058594 285.632812 C 526.5625 288.453125 521.667969 288.734375 517.890625 286.292969 C 514.113281 283.871094 512.320312 279.296875 513.429688 274.957031 L 526.414062 222.46875 L 482.273438 195.003906 C 478.515625 192.550781 476.746094 187.960938 477.878906 183.617188 C 479.019531 179.28125 482.8125 176.164062 487.28125 175.871094 L 539.804688 172.761719 L 553.625 121.507812 C 554.789062 117.167969 558.597656 114.074219 563.074219 113.816406 C 567.550781 113.554688 571.6875 116.195312 573.351562 120.371094 L 592.695312 169.707031 L 645.496094 166.734375 C 649.988281 166.507812 654.117188 169.175781 655.734375 173.347656 C 657.363281 177.53125 656.132812 182.292969 652.679688 185.160156 L 611.992188 217.527344 L 630.933594 268.171875 C 632.546875 272.351562 631.273438 277.105469 627.8125 279.941406 C 626.0625 281.386719 623.964844 282.167969 621.824219 282.292969 Z M 621.824219 282.292969 " fill-opacity="1" fill-rule="nonzero"/></g></g></g><g clip-path="url(#68ae1c6112)"><g clip-path="url(#6f94beaeb9)"><g clip-path="url(#1c30817c7d)"><path fill="#1a8ecf" d="M 47.253906 454.757812 C 46.316406 455.070312 45.285156 455.09375 44.292969 454.792969 L 20.902344 447.617188 L 6.492188 467.390625 C 5.261719 469.070312 3.101562 469.792969 1.113281 469.160156 C -0.871094 468.542969 -2.226562 466.71875 -2.25 464.652344 L -2.738281 439.683594 L -25.84375 432.804688 C -27.824219 432.167969 -29.167969 430.335938 -29.183594 428.261719 C -29.191406 426.191406 -27.867188 424.34375 -25.898438 423.671875 L -2.710938 415.90625 L -2.671875 391.386719 C -2.671875 389.3125 -1.335938 387.46875 0.640625 386.8125 C 2.617188 386.152344 4.789062 386.828125 6.039062 388.484375 L 20.648438 408.121094 L 43.976562 400.386719 C 45.964844 399.742188 48.136719 400.429688 49.363281 402.089844 C 50.597656 403.757812 50.621094 406.027344 49.414062 407.726562 L 35.054688 427.089844 L 49.640625 447.359375 C 50.867188 449.027344 50.871094 451.300781 49.65625 452.984375 C 49.046875 453.839844 48.199219 454.441406 47.253906 454.757812 Z M 47.253906 454.757812 " fill-opacity="1" fill-rule="nonzero"/></g></g></g><g clip-path="url(#89d1522eba)"><g clip-path="url(#a02c233673)"><g clip-path="url(#526a58fadf)"><path fill="#1a8ecf" d="M 483.550781 96.625 C 481.425781 96.746094 479.273438 96.214844 477.378906 95.019531 L 432.804688 66.769531 L 391.78125 99.964844 C 388.289062 102.785156 383.394531 103.070312 379.617188 100.625 C 375.839844 98.207031 374.046875 93.628906 375.15625 89.289062 L 388.140625 36.800781 L 344 9.335938 C 340.242188 6.882812 338.472656 2.296875 339.605469 -2.050781 C 340.746094 -6.386719 344.535156 -9.503906 349.007812 -9.792969 L 401.53125 -12.90625 L 415.351562 -64.160156 C 416.515625 -68.5 420.324219 -71.59375 424.800781 -71.851562 C 429.277344 -72.109375 433.414062 -69.46875 435.074219 -65.296875 L 454.421875 -15.960938 L 507.222656 -18.933594 C 511.710938 -19.160156 515.839844 -16.492188 517.460938 -12.320312 C 519.089844 -8.136719 517.859375 -3.375 514.40625 -0.503906 L 473.71875 31.859375 L 492.660156 82.503906 C 494.273438 86.683594 493 91.4375 489.539062 94.273438 C 487.789062 95.71875 485.691406 96.5 483.550781 96.625 Z M 483.550781 96.625 " fill-opacity="1" fill-rule="nonzero"/></g></g></g><g clip-path="url(#4e512aee0f)"><g clip-path="url(#c5c7219b1f)"><g clip-path="url(#a17174b6b2)"><path fill="#1a8ecf" d="M 123.085938 48.371094 C 121.902344 48.214844 120.773438 47.699219 119.855469 46.84375 L 98.269531 26.652344 L 72.230469 40.628906 C 70.011719 41.816406 67.289062 41.460938 65.464844 39.722656 C 63.640625 38 63.128906 35.292969 64.195312 33.023438 L 76.816406 5.507812 L 55.390625 -14.207031 C 53.578125 -15.945312 53.082031 -18.65625 54.160156 -20.929688 C 55.238281 -23.191406 57.652344 -24.511719 60.140625 -24.207031 L 89.375 -20.4375 L 102.328125 -47.183594 C 103.421875 -49.449219 105.839844 -50.753906 108.332031 -50.429688 C 110.820312 -50.105469 112.824219 -48.21875 113.300781 -45.75 L 118.800781 -16.597656 L 148.171875 -12.71875 C 150.664062 -12.375 152.660156 -10.476562 153.113281 -8.015625 C 153.574219 -5.542969 152.402344 -3.050781 150.199219 -1.832031 L 124.429688 11.722656 L 129.570312 41.554688 C 130.023438 44.023438 128.824219 46.503906 126.625 47.703125 C 125.511719 48.316406 124.273438 48.527344 123.085938 48.371094 Z M 123.085938 48.371094 " fill-opacity="1" fill-rule="nonzero"/></g></g></g><g clip-path="url(#9f6009c446)"><g clip-path="url(#c000cbc053)"><g clip-path="url(#eb6ea6df0a)"><path fill="#1a8ecf" d="M 452.820312 354.859375 C 450.585938 357.097656 447.671875 358.636719 444.390625 359.183594 L 367.09375 371.945312 L 354.335938 449.242188 C 353.242188 455.824219 348.09375 460.96875 341.492188 461.996094 C 334.917969 463.050781 328.414062 459.753906 325.367188 453.851562 L 288 382.898438 L 211.949219 396.097656 C 205.367188 397.097656 198.875 393.761719 195.847656 387.832031 C 192.839844 381.902344 193.964844 374.703125 198.636719 369.964844 L 253.824219 314.613281 L 218.601562 244.199219 C 215.609375 238.242188 216.78125 231.054688 221.492188 226.34375 C 226.203125 221.632812 233.394531 220.46875 239.351562 223.449219 L 309.46875 258.96875 L 365.101562 203.5 C 369.859375 198.808594 377.066406 197.683594 382.976562 200.703125 C 388.910156 203.726562 392.246094 210.21875 391.242188 216.808594 L 378.039062 292.855469 L 448.996094 330.222656 C 454.910156 333.257812 458.1875 339.78125 457.144531 346.34375 C 456.628906 349.667969 455.074219 352.609375 452.820312 354.859375 Z M 452.820312 354.859375 " fill-opacity="1" fill-rule="nonzero"/></g></g></g></svg>